<?xml version="1.0" encoding="UTF-8"?>
<svg id="Camada_1" xmlns="http://www.w3.org/2000/svg" version="1.1" viewBox="0 0 1200 1256">
  <!-- Generator: Adobe Illustrator 29.7.1, SVG Export Plug-In . SVG Version: 2.1.1 Build 8)  -->
  <defs>
    <style>
      .st0 {
        fill: #a5ca56;
      }

      .st1 {
        fill: #f2f8e8;
      }

      .st2 {
        fill: #5dab49;
      }

      .st3 {
        fill: #a7ca58;
      }

      .st4 {
        fill: #228d43;
      }
    </style>
  </defs>
  <path class="st3" d="M57,353.5c-.9,4.9-4.6,9-5,10.7s.4,7,0,7.3c-.6.5-4.7-1.7-5.9,4.6s1.8,5,2,6.9c.4,2.9-.4,6.5,0,9.6-3,3.9-1.6-8.7-2-9s-3.8-.1-4,0c-.3.3.3,2.3,0,3.2s-1.8.8-1.9,1.5c-.6,2.4.3,5.6-.3,8.6-1,5.6-5.3,9.1-3.7,16s1.6.8,2.1,2.1,3.9,13,5.8,10.6c-.2-1.7.4-3.8,0-5.3s-1.7-.6-1.8-.8c-.2-.3,1.8-6.4,2-6.6.9-1,5,.2,3.8-5.2,3.7-.8,1.3,3.3,2,4,1.5,1.6,3.5-3.4,4.2-3.7,5.3-2,7.5,3.5,8.5,3.7s7.9,1.3,8.3,1,.6-3.9,1.2-4.8l6.8-1.2c-.3.3-.4,1.9-1.4,3-2.9,3.3-6.3,3.5-6.4,8.5s.9,2.2.8,2.5c-12.8-13.6-25.1-11.4-26.9,8.6-1.1,11.9,4.6,18.6,9.9,28.4-1.8.6-3,1.4-4,3,1.5-6.8.5-3.1-1.3-6.2s-2.7-8.5-3.7-2.8h-14c-.5-6.1,3.3-2.4,5.9-3.5s6.1-5.1,6.1-7-3.7-1.1-2-5c-.2-2.6-6.3,3.8-4,6.5-3.9,1.4-3.4-4.4-5.9-2.9-3.9,2.2-1.5,16.7-1.4,21.2s.3,6.2.4,8.7c0,4.3,0,8.7,0,13s0,.7,0,1c.2,10.3-.3,20.7,0,31s-.2,0,0,1-.5,2,.5,2c2.8-2.4,9.4-8.8,12.3-3.8s-6.1,23.1-7.5,28.6c-4.6,17.7-4.3,33-6.3,50.7-5.5,49.3-14.7,99.2-4,148.5,2.3.5,1.6-.3,2.2-1.3,2.1-3.2,3.8-8,4.8-11.7,11.1,2.5,7.1,14.8,6.9,22.5s.1,12.7,3.2,18.9,5.9,5.6,7.8,9.7c-10.2,0-11,5.1-11.1,14.5-.2,17.7,20.2,20.7,22.1,10.5,1.3-.4,3.4,1,4,1-.3,11.4-1,19.4,5.2,29.3s4.7,4.4,4.8,4.7c1.9,4.2,2,13.1,4.5,19s4.4,7.5,7,10c1,0,7.5-15.7,8.5-18,.2,11.4-1.5,21.3,3.5,32s24.9,16.6,36.1,8.6,8.4-18.7,7.4-25.6c3.3,3.2,7.9,5.1,11.5,8,16.4,13.6,20.3,33,17.4,53.4s-4.7,16.5-4.9,23.1c-.5,16.8,17,30.6,24.4,45.6,4.7,9.7,6.3,18.7,9.6,28.4s8.7,11.3,16.1,17.4c-5.2-.7-12.4.6-16.5,4s-4.4,4.7-4.5,5c-13-16.4-24-35.4-31.5-55-4-10.4-5.3-21.5-11.7-31.3-4.1-6.2-7.9-7.6-12.8-12.2-3.6-3.3-6.5-9.7-12.5-10.5-5.5-.7-11.7,5.4-12.3,10.6-2.3,20,12.6,28.9,18.5,44.2,1.2,3,4.2,15.5,4.3,18.2s-1.9,7.7-2,10.5c-.5,12.5,0,27.6,13.3,33.7s21.5-12.3,23.7-25.2c.3.8,1.6,1.8,2.2,3.3,4,9.7,3.7,22,15.8,26.3s6.2-.5,6-5.5c12.3-1.2,26.4,17.1,29.7-4.8s1.2-4.7-1.7-7.2c5,1.2,5.2-9.6,5-12.5-.8-11.3-9-21.9-10.8-32.2s0-1.3,1.8-1.3c41.6,60,106.1,100.5,172.9,128.1,1.9,2.9-2.4,5.7-4.8,6.4-5.3,1.7-17.6-4.7-20,3.4-.6-.6-12-4.7-13.6-4.9-12.5-1.6-14.1,8.5-12.4,18.9-9.3-1.8-10.8-10-15.2-16.3-11.7-16.9-27.6-21.7-46.6-26.4-6.3-1.5-20-5.1-25.8-5.4-2.1-.1-2.5.3-3.4,2.1-.9-7.7-12.9-21.3-20.8-23.7-15-4.6-29.2,4.2-24.7,20.7,3.3,12.2,15.3,25.4,28.8,24.9,5.8-.2,12.5-4.3,16.6-4.9,8.1-1.2,14.3,7.8,19.5,12,24,19.1,50,35.3,81.5,38,.6,1.7,9.1,11,11,12.5,5.5,4.3,19.5,8.2,26.4,7.4,9.4-1.1,6-16.3-.5-21.4-7.8-6.1-27.5-4-36.9-1.6-1.3-4.1-2.8-7.9-4-12,7,1.7,24,.2,25-9l72.7,31.8c9.6,5.6,19.6,10.6,28.5,17.2s8.9,9.6,14.8,11c-1.5,3.6-.7,8.2.8,11.7s7.1,11,8.3,11.7c2.9,1.9,16.8,2.2,20.4,1.5,3.4-.6,5.1-4.4,8.5-5-.3,1-.4,4-2.3,4.7s-2.9,0-4,.3-.6,2-.7,2h-14c-.1,2.3-.3,1.8,1.5,2,3.1.4,6.8-.4,10,0s9.4,4,10,4c3.5.5,8.7-.8,11.9,0s9.6,2.5,14.4,3.8,10.4,1.2,14.6,2.2-.2,2.3,4.2,2.1,2.3-1.9,3.1-2.1c1.4-.3,5,.3,5.3,0,.5-.5-1.5-11.1,2.7-12s11.3-.4,12.6,0-.2,2.5,2.1,2,.1-1.8,1.2-2c3.4-.9,10,.6,13.9,0s.9-2,2.9-2.2c3.2-.3,1.9,1.9,4,2.2,5.7.7,12.8-.4,18.6-1.1.2-1.7-2.3-.9-3.5-1-2.5,0-5.6.4-7.8,0s-8.2-7.7-8.4-8.2c-.7-1.7-.6-11.8,0-13.5s4.1-4.2,4.4-4.2c1.5-.3,3.2.3,4.6,0s1.3-1.7,7.2-2c1.9,0,4,1,3.4-2,5,.8,11.6,1.4,13.6-5,2-6.4-4.7-10.1-5.6-16,15.4-6.4,9.8,4.5,14.9,12.3,3.5,5.3,14.9-3.3,17.1-7.3,2.9,1.3,14.7,1.8,18,1-.6,2.7,1.3,2,3.1,2.3,25.1,4.3,37.2-5.1,59.7-11,12.5-3.3,30.9-2.1,36.2-16.3-4.6,12.9,1.2,22.5,15.6,18.1,8.2-2.5,25.5-22.1,18.4-30.1,3,.8,2.5-.8,3.6-1.8,8.9-8.6,18.4-15.7,29.3-21.7-6.7-.2-14.4-1.4-21-.5,4.7-7.7,3.5-23,0-31,23.5-4.5,42.4-22.8,55.8-41.7,2.6-3.7,12.2-17.7,13-21,1.4-6,.6-9.6-5.7-10.9-5.2-1.1-7.8,2.9-12,5.1-17.5,9-30,10.8-41,28.5-7.6-5.7-21.3-27-29.7-28.8s-10,2.3-11,8.5-1.6,17.5-1.1,21.7,1.5,6.4,2.9,8.8,8.8,6.5,10,6.8c.6,2.3-5.7,3.9-7.2,4.3-12.5,3.4-38.9-3-50.3-9.3-19.1-10.5,1.2-26.3-4.6-36.4-1.8-3.2-18.8-9.1-22.7-9.4-15.6-1.3-12.5,21.7-28.8,22.8-13.6-1.6-27.3-3.7-40.9-5-18-1.7-38.3-1.7-55.9-4.1-3.3-.5-9.4-1.8-9.6-5.9s3.9-8.1,7.7-8.8c19-3.5,44.3-5.8,63.7-7.3,20.2-1.5,19.9,2.4,38.7-8.3,1.3-.7,6.6-2.4,6.8-2.7,3.4-5.4-18-14.6-6.4-22.9,7.9-5.6,15.5.2,24,1,9.9.9,20.9-.8,30.9.1s27.5,12.7,40.3,6.1c8.1-4.2,8.1-10.7,13.3-16.2,20.3,2.4,38.8-6.6,57.8-11.7,7.9-2.1,16.2-2.6,24-5,20.7-6.3,36.5-21.4,47.6-39.4s5.5-12,9.6-16.9c-.3,8.1,3.7,20.1,7,27.5s9.9,15.8,13,24.5c-10.3-.4-15.4,6.2-24,10,.8-4.7,1.2-12.5-4.7-13.8-20.4-4.4-30.8,31.8-5.3,29.8-1.7,3.8-5,17.5-5,21.6-.2,15.5,21-.2,25.5-.5,8.7-.5,10.4,6.6,7.2,13.6-.2.4-1.3.5-1.6,1.1-9.9,18.6-22.9,36.2-33.2,54.6s-2.4,4-1.8,4.7c15.4-3.7,21.8-14.6,28-28,2.6,9.2-.3,18.1,12.5,17,10-.9,14.2-8.9,12.3-18.3s-4.6-6.6-3.8-10.7c31.4-2.2,54.5-45.1,67.9-68.8v-5.2c1-.4,2.8-1,3.1-1.7.7-1.8,1-8,1-10.3,1.8,0,4.7-.1,6-1.5,4.8-5-.6-28.2,0-36s5.1-13.4,6-20.5c-26-11.6-33.4,22.1-57,20,0,4.6,3.5,7.8,3.1,12.5s-2.5,4.1-4.1,6.5c-2.2-9.8-14.6-15.6-14.9-26.6-.1-4.6,3.4-7.6,1.1-13.1s-6.9-7-10.2-7.3l26.5-33c3.5-4.4,8.7-7.2,12.5-11-2.5,12.2-2.1,32.5,15.4,29.9,9.5-1.4,13.4-20.2,12.4-28.3s-5.9-14.1-12.9-16.6c3.7-4.4,6.5-11.4,10-16.3,8.1-10.9,17.2-21.2,24.4-32.8,6.1-9.8,11.2-20.1,15.1-30.9l4.2,12.7c2.2,13,.9,23.6-2.3,36.3-1.4,5.6-5.7,11.6-4.5,17.5s9-1.1,13-.5c-1.3,3.1-4,15.3-4,18.5.1,17.4,21.9,30.7,29.8,9.8s2.5-16.4-2.6-25.9-9.2-16.3-15-13.1c-.4.2-5.2,6.5-6.2,7.8,1.9-13.9,8.9-27.4,12.7-40.8,3.9-13.6,7.4-29.5,6.3-43.8-.7-9.1-5.9-15.1.5-23.4s11.1-4.1,17.1-6.9c12-5.5,17.4-16.9,20.8-29.2,6.2-22.5,2.4-27.3-2-47.9-3.6-17,1.2-36.3-1.9-52.1s-5.8-8.4-9-13c-14.6-21-14.4-42.6-10.6-67.3.2-.5,2.9-1.2,4-1.6,3.6-1.5,7.8-3.8,9.9.8s4,14.9,6.4,21.4c11.3,30.7,31,62.8,31.8,96.2.2,7.2-1.8,11,.4,18.6,1.3,4.4,3,7.3,7.5,9v35c-4.6,13.5-8,27.4-12.5,41-9.4,28-21.6,55.1-30.9,83.1s-10.8,47.2-20.7,61.3c-10.4,14.8-39.6,22.6-27,45.4s12.2,10.9,14.7,18.3c5.8,17.1-4.9,34.8-16,47-2,.4-1.2-.3-1.7-1.3-4.6-9-3.8-19.4-18-15.4s-17.6,14.9-8.8,24.2c8.2,8.8,28.8,4.5,19.9,24.8-3.3,7.5-23.4,25.9-30.4,32.6s-18.8,16.6-27.6,25.5c-3.5,1.6-6.4-4.1-9-6-5.5-3.8-13.6-4.8-20-3.1-1.7.5-10.7,6.5-11.7,7.8-6.2,8.6,8.8,13.8,11.8,18.2,1.8,2.7-3,7.6-5.4,8.7-13.9,6.6-39.6,2.9-35.7,27.2s7.5,10.2,5.7,18.8-12.4,18.8-16.8,22.7-14.2,10.5-17.8,11.7c-11.3,3.7-33.6-1.5-37,15-2.7,13.1,5.1,20.6-12.2,27.8s-15.2,1-25.1.9l-12.7,11.6c-20.9,12.6-76.1,16.4-100.8,15-14.4-.8-30-5.1-44-6s-7.5-.6-9.5,2c-1,0-2,0-3,0-9.4.4-18.5,2.8-28,2-2.3,2.4,6.9,7.1,8.8,7.8s2.6,0,3.2.2c6.2,2.2,10.6,3.3,12,11-6.4,2-12.4,0-18.4,0-24.7-.3-52.3,2.6-76.1,1.1-4.7-.3-13.4-5-15.3,1.7-2.9,10.2,5.3,13.1-12.6,10.2-28.7-4.7-57.2-9.8-86-14-42.5-6.3-79.6-31.5-121.1-33.9-33-1.9-52.8-1.2-85.1-11.9s-89.7-43.9-115.8-68.2c-4.9-4.6-7.8-8.6-6.6-15.8,15.6,3.4,33.2-15.4,20-28.5-7.9-7.9-17.6-9.6-27-3s-4.8,16.9-19,4-19.7-27.8-25.9-37.3c-14-21.3-46-69.2-42.8-94.5.7-5.9,4-12.2,4.6-18.4,1.2-11.2-.5-22.5-4.9-32.8,12.5-4.7,18.1-10,17-24.1s-4.9-20.9-15.8-23.2-5.8.4-8.3-.7-16.5-22.1-18.8-26.2c-8.7-15.1-14.7-30.9-20.2-47.3s-9.7-33.7-16-50v-103c19.7-25.8,15.8-62.1,22.3-92.2.5-2.3,2.5-4,2.7-6.4.3-3.4-3.6-9.3-4.5-13.4-3.8-15.9,3.3-29.4,5.4-44.7,3.9-28,2.9-49.8,12.2-77.8,4.8-14.3,11.8-24,17.9-36.6,1,0,1.1,1.3,1,2ZM38,419.5c-.7.1-4-.2-4,0v16c0,.2,4,.2,4,0v-16ZM99.7,931.2c2.5-3.5,2.4-15,.2-19.1-3.3-6.1-13.1-7-16.7-1-8.4,13.8,10.2,28.8,16.5,20ZM937.8,1071.7c-.5-.9-7-3.7-8.5-4-18.7-3.2-41.9,12.3-37.1,33.1,1.7,7.2,13.5,11.9,20.3,11.8,10-.2,23.2-11.2,25-21s1-18.5.2-19.8ZM624.2,1210.7c-2.8,2.8-2.1,10.1-.4,13.5,4.6,9.5,28.3,10.7,36.2,5.7,7.9-5,6.5-18.3-3.1-20.8-4.9-1.3-29.4-1.5-32.6,1.5ZM504.5,1235.5v1c.6-.3.6-.7,0-1Z"/>
  <path class="st3" d="M656,3.5c25.9,11.7,54.4,8.1,81.2,18.3,7.9,3,20.4,7.5,21.8,16.7-2.1-1-5.4,1-6.5,1h-14.5c-.5,2.6.5,1.6,1.4,2.1,11,6.6,19,13.4,29.2,20.7,2.4,1.7,10.3,5.6,11.3,6.7,2.4,2.6,1.3,7.9,2,10.5-15.7,0-8.1,13.7,1.1,18.4s12.6,3.2,17.9,6.6c-3.3,15.8,33.5,32.4,31,4,3.6.2,4.4,4,6.5,6,12.8,11.7,30.9,15.4,44.8,25.2s24.4,35.3,44.7,24.8c1.4,1.7,14.1,8.9,16.8,9.7,16.7,5,24.8-.7,23.2-18.2-1.4-14.8-17.9-31.4-33.3-28.3-5.4,1.1-11.8,9.8-12.7,14.8-4.7-10.6-21.6-14.4-25.3-25.3s3.5-10.7,4.3-16.7c-5.2-1.6-14,.1-17.8-4.2s1.5-2.2-1.2-2.8c45.2,7.9,80.4,11.3,118.7,39.7,1.6,1.2,10.9,8.4,11.2,9.1,1.1,2.2.7,1.5,0,3.2-6.7.5-14,3-16.9,9.6-13.3,30.6,34.5,43.4,39.4,12.4l5.5,11c0,.3,0,.7,0,1,1.6,10.5,23.2,33.5,29.8,44.7,3,5.2,13.6,24.2,14.1,28.9s-.6,7.4-4,11.6-6,3.9-6,7.3,6.6,12.2,8.3,14.8c5.4,8.7,11.9,17.3,17.8,25.4,1.5,2,3.9,8,6.5,9.3s1-1.5,1.1-2c.2-5-2.3-12-4.4-16.7s-8.3-10.8-7.2-17.3c5.2-.3,9,3.8,12.9,6.6l11.1,14.4c5,17.9,9.3,36.9,3.3,55h-16.3c.2-.3,2.7-6.3,2.8-6.8,1.4-7.1-5.8-12.5-6.8-19.3-1.6-1.2-4,3.9-5.1,5.2s-2.4,3.1-3.9,2.8c.9-7.6,1.7-19-7.7-20.8-14.6-2.7-11.9,3.6-12.2,14.3,0,1.3-1,2.3-1,2.4-11.4-23.3-26.5-44.2-40.7-65.7-3.2-12.5,13.2-13,13.8-18.8s-9.2-8.2-12-8.4c7.5-13.3,7-30.5-.8-43.7s-9.8-9.1-18.1-5.7c-14.7,6-14.9,28.3-6.1,39.4-4.1,1.4-4.7,3.5-5,7.4-.9,9.7,4.4,14.5,4.9,23.2.7,11.4-8.2,15.4-16.3,7.2s-6-9.7-9.2-13.8c-22.2-28.4-53.2-41.4-87.4-50.6-8.3-2.2-22.5-.4-21-12.9.2-2,2.6-5.6,4.5-5.6h16.5l-.6-3.1c-13.6-8.5-27.6-16.4-42.7-22.1-9.7-3.7-32.4-11.5-42-8.6s-2.5,17.9-14.2,17.9c-12.3,0-23.9-24.2-37.8-16.1-.9.5-1.2,1.7-1.7,2,2.9-11.1-12.4-21.2-21-16-11.7-14.6-33-9.3-48-17.5s-12.2-15.1-23.5-16.5c-9.2-1.1-11.7,1.4-19.4,3.9-1.8-14.2-7.5-34.2-15.2-46.3-4.2-6.6-19.2-16.8-27.2-15.6-20.4,2.9-9.9,27.8,6.2,31.7s8.1-1.5,9.1,4-14.8,11.7-16.8,16.2c-6.4-9-12.2-16.9-24.5-18-11.1-1-19.4,3.6-30.5-1.5-10.7-4.9-16.7-16.3-12-27.5-27.8,4.7-57.3-8.7-84.5,2-5.4,2.1-13.5,8-19,9s-13.7-.5-19.9,0c-13.4,1.3-23.6,11.2-31.5,21-1.7-5.2,2.8-18.5-4.5-20-10.4-2.1-27.4,10.1-29.8,20.2s-1.7,18.5,8.8,17.8c2.2-.1,12.5-3.1,14.5-4-1.1,8.9-15.1,7.6-11,19-1.9-.1-10.8,1-13,1.5-3.8.8-7.7,3.2-11.3,4.5-1,.4-.5,1.3-.6,2.1-14.3-1.6-26.4,9.5-38.6,14.9s-5,1.6-7.5,2.6-3.5,0-2.9,2.6c-1.6-4.2-14.2-7.2-18.5-7-8.4.3-16.7,6.3-23.5,11-1.3-3.6-7.7-2.1-8.7.3s0,3.2-.4,4-1.3.8-1.6,1.2c-1.3,2,.7,3.2-4.4,2.6-.7-2.3,1.9-3.8,2-5.5s-13-5.4-16.4.7-.4,3.3-.8,3.6c-.7.6-4.5-.3-4.9,0s.4,4.6,0,5-8.3-.3-10,0l1,10c-2.6-.2-3.9-2.9-7-2,2,5.9-1.2,4.4-4,6.7-4.4,3.8-5.5,10.6-12,9.3-1.4,2.6,3.8,1.6,1.9,3.9s-3.1-.4-1.9,4c3.9,0,6.6.5,10.2-1.3,6.6-3.4,1.5-5.3,1.7-8.1s2.6-2.5,2.8-2.6c4.5-1.2,3.1,2.9,6,3.8s5.3-.2,7.8.2,5.2,3.7,8.4,4c-1.2,2.9,2.2,10.2,4.7,10.7s6.3-1.2,8.1-1.5,2.6.8,3.6.6,9.3-9.2,8.7-10c-2.4.4-6.7-4.3-7.5-6s-.2-3.2-.6-4.2-3.4-1.7-1.9-5.7c5.2-1.7,4.8,4.4,6.6,6.9s7.6,7.6,10.7,7.1,2.5-1.9,2.6-2.1c2.2-3.4-6.7-3.9-7.2-4-3.7-.9-2.4-7.6-2.7-8s-3.7.4-4,0,.2-2.9-.3-4.2c-1-3.2-2.6-3.6-1.5-8.1s3.1-3.1,3.6-4,0-3.3.3-3.7,2.3.2,3,0c-3.4,7.4-3,23.6,6.7,25.8,3.4.8,12.4.5,16.3.2l-33.6,22.9c-3,.7-7.1,2.7-10,3.1s-5.7-1.3-8.4,0c.4-1.8-1-9.9-1.8-11.7-2.5-6-12.2-5.5-16.7-2.3s-8.8,12.5-8.5,14l-4.4,1.1c-23.9,29.1-46.6,59.3-70.7,88.1s-2.4,3.1-3.9,2.8c.5-5-.3-7.4-3.5-11.1s-2.3-.7-2.5-.9.3-1.5-.2-1.8c-7.9-5.6-11.3-.8-6-14.9s20.7-33.6,32.2-47.3,13.4-15.8,14.5-15.8c8.2,7.5,15.5,12,26.7,7.5,1.5-.6,12.2-7.2,12.6-7.9,2-3.4-5.8-12.8-8.2-15.5s-6.5-4.1-3.7-5.9,7-1.7,9.9-3.1c15.5-7.4,18.6-24.9,34.3-31.5s.7-1.7,1.5-1.9c7.8-1.9,18.6,0,25.3-1.5,19.6-4.6,32.9-34.4,45.3-48.2,18.5-20.4,46.5-33.8,70.3-47.2s22.8-14.8,37.5-18.5c8.1-2,10.3,1.9,11.8,9.3s-1.5,6.7,4.4,6,31-9.1,39.6-12.5,23.4-11.3,33.6-18.5,2.7-.9,2.5-3c2.9-1.3,4.6-3.1,7.3-4.2,11.4-4.8,20.1,1.3,31.2,2.2,14.6,1.2,29.2-1.2,43.3-4.7l36.2-9.3h58ZM549.6,27.9c-7.9-5.2-36.4-7.9-39.1,3.5s-.9,12.3,3.5,15.5,32.6,3.8,37.7-.8,2.8-15-2.1-18.3ZM656.8,23.8c-10.9,1.2-12.5,3.6-10.6,15,1.9,11.1,15.7,15.3,25.4,15.7,12.9.5,16.5-8.1,12.1-19.2s-15.8-12.7-27-11.4ZM664.7,69.6c-4.9,1.2-4.4,11.7-1.7,15.4s10.4,6.9,13.8,7.3c7.5.8,10.4-7.4,6.2-13.3s-15.5-10.1-18.3-9.4ZM717.8,94.8c-12.1,1.8-13.6,11-6.3,19.7s32,23.4,38.7,7.7-.9-12.3-5.7-17.7c-7.6-8.7-15.2-11.4-26.7-9.7ZM953.7,191.7c-2.1.5-4.4,2.6-5.7,4.3-11.3,14.5,16.7,26.9,26.5,15.5,10.2-11.7-10.3-22.3-20.8-19.8Z"/>
  <path class="st3" d="M960,1139.5c1.2,5.1-2.3,3.8-5.2,6.1-6,4.6-1.2,3.9-10.1,6s-5.2,3.9-6.1,4.1c-5.2.7-12.8-1.1-17.8,0s-2.6,3.7-3.5,3.9c-1.6.4-3.2-.3-5,.3s-4.1,4.1-4.2,4.4c-1.2,5.8,1,14.2-.3,20.5-.5,2.4-5.8,9-8.1,9.9s-4.1.5-5.9,1-.6,1.7-1.4,1.9c-5.3,1.4-10.5,2.9-16.8,2.1-1.8-.2-1.2-3.3-6.7-2-2.9.6-2.5,5.7-2.8,5.9s-2.4-.2-3.7.3-1.9,2.9-2.6,3.4c-4.8,3.2-11,5.9-16,8-7.5,3.1-9.8,1.3-17.1,2.4-32.9,5.1-63.2,8.5-97.1,4-1.9-.2-1.3-1.9-2.1-2.1-3.7-.9-9.8.6-13.9,0s-1.3-1.9-2.1-2.1c-2.4-.6-7.4,0-10.3,0,2.1-2.7,6.5-2.2,9.5-2,14,.9,29.6,5.2,44,6,24.7,1.4,79.8-2.5,100.8-15l12.7-11.6c9.9,0,14.9,3.3,25.1-.9,17.3-7.2,9.5-14.6,12.2-27.8,3.4-16.5,25.6-11.3,37-15s14.9-9.1,17.8-11.7Z"/>
  <path class="st3" d="M698,1217.5c.6,3.7-5.1,1.5-7.3,2s.4.7-5.1,1.1c-1.2,0-7.3.7-7.6.9s.2,3,0,4l4,2c-.6-.2-2.1.2-3.2-.2-1.9-.6-11.1-5.4-8.8-7.8,9.5.8,18.6-1.6,28-2Z"/>
  <path class="st4" d="M752,236.5c11.7-4.8,24.6-.3,36,3.5,34.3,11.4,65.5,32.2,93,55-5.9,8.9-21.3.3-27,8.9s3.3,7.7,6,11.1c11.6,14.4,19.5,34.7,42,32.5,0,4.9,2,10.9,4.1,15.4,4.3,9.2,17.1,23.9,19.4,32.6,4.8,18.6-17.1,16.4-18.5,28.6s4.3,9.2,7.6,15.2c5,9,6.3,20.6,11.5,29.5s20,13.2,21.8,31.2-.2,24.9,2.2,38.8c6.5,36.4,25,73.7,35.3,109.7,1.6,5.6,2.8,20.7,8.4,22.6,10,3.3,9.6-5.4,10.1-13,1.8-26.8-4.4-55.9-13-81.1-3.6-10.4-13-26.2-10.8-36.7s3.8-9.6,7.3-6.8c5.1,4,1.7,13.5,2.7,19.3,1.6,9.2,10.2,25.5,13.5,35.5,19.1,58,19.1,110-3.2,167.2-3.2,8.1-6,15.9-9,24-9.3,25.2-27.1,47.8-37.3,72.7-1.6,4.1-3.4,13.8-5.2,16.6s-2.4,1.4-3.1,1.7-1.5-.2-2,0l-2,1c-17.9,7-32.9,23.7-51,33.5-16.8,9.1-27.1,9.2-43.3,14.7-2.6.9-11.4,8.3-16.4,10.6-5.7,2.6-21.1,6.4-24.7,9.3s-1.9,5.8-.5,6.7,9.8.2,11.8.1c8.5-.3,19.8-4.5,20.8,7.8.9,11.3-10.2,11.3-15.8,17.2-5.2,5.5-5.2,12-13.3,16.2-12.8,6.6-27-4.8-40.3-6.1s-20.9.7-30.9-.1c-8.6-.8-16.1-6.6-24-1-11.6,8.3,9.8,17.5,6.4,22.9s-5.5,2-6.8,2.7c-18.7,10.8-18.4,6.8-38.7,8.3-19.5,1.5-44.7,3.8-63.7,7.3-3.9.7-8,4.8-7.7,8.8-13.6-.4-21.4,13-35,11,0-5.3-6.8-4.4-10-5.5s-8.4-3.2-12.7-4.3c-20.7-5.2-44-4.8-63.5-13.5s-32.2-33.9-55.1-21.6c-6.1,3.3-7.8,9.1-15.6,3.3s-9.2-15.8-13.1-20.9c-11.1-14.6-27-25.4-36.4-41.6s-13.6-41.8-29.1-57.9c-2.3-.4-1.4,1-1.5,2.5-3,40.7,1.7,65.6,15,103.5-10.5,9.9-15.9-4.2-22-10.5s-8.1-7.6-11.5-9.5c-6.1-3.6-12.4-5.6-19.5-5,1.1-1.2,3.5-7,3.8-8.7,1.8-10.5-6.3-21.3-9.8-31.3s-2.7-10.6-4.8-15.7c-7.4-17.9-20.8-31.8-24.1-51.9s-1.2-10.4-7.1-18.9c-13-18.9-29.4-23.3-39.5-47.5-13-31.2-14.9-65.3-8.2-98.2s11.1-27.8,5.7-41.8c-2.5-2.2-10,9-11.4,11.1-8.7,12.7-15.6,30.1-20.1,44.9s-8.1,37.6-9.5,39-1.7-.4-2.2-1.3c-1.5-2.7-2.5-7-3.9-10.1-7.4-15.7-19.6-33.6-19.9-51.1s13.9-50.7,20.4-72.7,4.6-28.6,9.7-35.3,9.6-8.2,13.5-12.5c13.8-15,22.5-34.3,34.1-50.9s13.1-11.8,10.4-21.4-18,3.7-22.2,4.6c-7.5,1.6-18.2,2.8-19.8-6.9-1.4-8.6,5.9-14.4,9.8-21.1,9.7-17.1,10.5-36.3,18-54,13.3-31.5,38.9-23.1,65.2-32.3s21.9-7,26-10.5,4.8-13.7,7.8-20.2c5.5-11.9,22.9-12.7,33.7-16.3,27.6-9.2,39.4-29.1,62.2-41.8,11-6.2,36.5-18,48.3-21.7s23-2.9,33.9,5,10.9,12.2,18.7,13.3c14.4,2,33.1-11.5,46.7-17.1,14.1-5.8,35.9-13.1,51.1-10.8s15.7,12.7,22.5,14.5c6.8,1.8,17.4,1.3,25.2,2.8,38.6,7.3,71,33.8,108.6,43.4,15.7,4,30.6,2.9,45.2,10.8,22.8,12.3,37.3,39.3,53,59,3.5,4.4,14.9,14.5,14.8,19s-2.5,6.5-2.9,10c-1.8,15.9,5.8,30.9,11.8,45.3.6,1.5-.6,2.7,2.2,2.2-2.6-25.2,1.3-51.2-5.5-76-7.4-26.9-45.3-71.6-70.8-83.2s-29.6-7.3-33.4-12.1c-6-7.5,4.7-8.8,7.6-14.3,4.8-9.3-7.3-9.9-13.5-13.2s-21.4-11.8-23.1-19.9.2-5.7-.2-8.3ZM708.4,371.2c-3.2-6.6-.2-13,7.3-13.4s21.5,17.7,28.3,12.2-1.3-7.2-2.6-9.4c-8.3-14.8-28.6-33.6-42.5-43.5-16.5-11.7-35.6-1-53.4.4-19.5,1.5-40-.9-58.7-6.3-13.1-3.8-27.4-12.8-41-10.5-5.2.9-9.7,4.3-16.2,4.8-11,.9-18.2-4.2-28.9-2.9-17.8,2.2-19.3,22.4-31.6,27.4-12,4.8-17.4-4.6-29.2-3.2s-42.3,26.6-52.7,39.3c-7.4,9-34.7,44.6-37.5,53.5s-1.5,8.9-.5,14.5-.6,3.5,1.4,2.5,11.7-18,14.5-21.5c10.3-12.5,30.5-32.3,42.9-43.1,18.3-15.8,10.6,13.6,22.8,16.3,10.5,2.4,15.3-9,21.8-14.8,13.6-12.3,34-12.4,48-23,7.7-5.8,10-13.4,21.8-5.8,13.6,8.7,3.6,26-5.3,34.4-4.8,4.4-13.7,7.6-10.5,16.4,1,2.6,5,6,7.8,6,6.6,0,11.1-6.6,16.1-10,10.6-7.1,16.6-5.9,27.9-8.1,10.4-2,26-7.2,35.7-4.4,15.5,4.4,16.6,21.7.2,26.3s-18.5,1.6-29,8c-10,6.1-25.7,25.7-25.3,37.7.3,11.5,10.1,3.7,17.2,2.1,13.9-3.1,28.3-.3,42.2-2.8s25.5-16.8,30.5,5.7c1.1,5-.9,6.5,3.1,11.9,8.4,11.4,21.2,16,31.5,24.5,14.9,12.3,28.7,32.9,38.4,49.6,6.6,11.4,7.6,17.4,12.3,28.7,2.2,5.4,6.9,9.3,8.9,14.1,4.9,12.1.5,27.4-12.8,31.3s-16.8,1.4-18.6,5.5c-5,11.6,16.3,21.4,13.1,37.1s-14.1,11.1-22,16.1-12.6,11.9-20.4,12.6c-14.9,1.4-18-23.5-30-24.9-9.9-1.1-12.3,7.7-18.2,12-13.5,9.7-14.7-7-20.8-8-6.7-1.1-21.1,12.9-26.6,2.7-5-9.2,3.9-21.9.7-32.7s-19.2-12-21.3-23.7,2.9-12.4,9.6-16.9c13.7-9.3,25.3-10.8,38.2,1.1,19.9,18.4-29,19.6-8.5,37.5s36.4,15.3,45.5,12.6c4.7-1.4,15.7-13.6,16.7-18.3,4.1-18.1-26.5-17.2-29.4-30.2-2.8-12.4,19.2-25.7-4.2-33.8s-19.2-4.5-28.6-.1-7.2,5.7-9.6,6.4c-12.8,4-20.5-10-8.4-18.4s27-12.5,32.9-13.1c13.3-1.4,25,10.2,35.3,3.3,12.5-8.3-4.7-20.8-13-23.9-15.7-5.9-37-5.2-50.5,5.5-4.9,3.9-7.6,10-15,10.1-10.1,0-12.5-11.4-20.2-14.8-15.3-6.8-21.6,11-31.7,17.8-9.1,6.1-23.9,8.2-31.2,16.3s-2.9,6.3-4.6,7c-7.8,3.1-9.3-14.2-20.1-13.3s-20.9,13.7-24.7,17.4c-6.9,6.9-25,31.7-27.5,40.5-9,32.2,38.9,30.9,41.4,57.6.5,5.6-2.3,10.7-.1,16.1s15.9,13.1,19.9,15.1c15,7.6,31.9,8.8,48.4,10.1l-14-9.5c-7.7-6.6-25-29.7-29.2-38.8-6.6-14.4,5.5-20.2,9.4-31,2.5-6.9-1-11.6,9-10.5s26.1,7.1,30.8,13.3c14,18.6-17,38.6-6.4,54.4,5.5,8.3,22.6,5.9,32,15,17.2,16.8-.3,43.5,12.5,56.5,6.9,7.1,29.7,4.9,39.2,3.3,16.5-2.8,21.9-10,34.8-18.2s16.5-9.1,23.8-14.2c10.2-7.1,28.9-29.2,41.3-27.2,3.3.5,7.4,2.8,7.8,6.4.8,8.7-17.9,26.7-24.5,32.4-14.7,12.5-31.9,22.6-47.3,34.2-1.7,2.7,3.2,4.6,5.4,4.8,4.5.5,28.3-14.3,34.5-17.4,32.3-16.3,85.4-36,104.1-67.9s14.2-35.1,10.3-52.7c-2.1-9.6-11.7-26.7.9-34,7.3-4.2,11.6,10.4,20.6,7-1.4-12.9-4.1-27.2-11.2-38.3-5.7-8.9-17.1-17-21.3-26.7-3.7-8.3-2.6-19-4.8-28.2-5-20.7-21-38.6-28.9-58.1-5.2-12.9-5.2-25.2-19.8-32.2-18.5-8.8-21.4,7.3-33.5,6.6-8.8-.5-15.1-10.5-23.2-11s-10,4.9-15.1,5.7c-14.6,2.3-17.1-14.5-11.7-24.7s26.2-8.9,36.9-18.1c1.5-1.3,2.3-4.4,4.2-4.9,6.7-1.7,26,25.2,37.9,20s.8-21.6-2.6-28.3-1.4-.7-1.6-1.1ZM816,482.5c9.8-13.7,16.6-28.2,17.1-45.4.5-16.4-7.9-53.2-18-66-15.9-20-45.2-32.3-68-42.5,7.6,20.5,35.9,33.2,30.8,58.3-.8,3.7-4.3,6.6-5.5,9.5-2.4,5.4.3,26.9,2.4,33.2s9.9,9.6,17,11,5.1-.2,7.7.3c13.6,3,12.2,29.8,14.7,40.3.4,1.5-.7,1.8,2,1.5ZM232,625.5c15.5-29.4,34.6-61.3,39.8-94.7s.3-19.3,2-24,10.1-13.5,13-18c17.9-27.6,27.3-45.2,49.6-70.4,6.3-7.2,10.1-13.8,8.6-23.9-14.1,10.5-36,16.4-46.4,31.1s-5.6,13.8-9,17c-5.2,4.8-17.1,4.6-23.8,8.2-10.7,5.6-13.1,16.8-15.4,27.6-9.2,43.8-13.9,89-23.2,132.8-.4,2.8-.3,5.6.3,8.4s2.9,7.3,4.5,6ZM855,440.5c-1.5-1.6-1.8.2-2,1.5-7.9,53.4-13.7,107.9-11.1,162,.4,9,5.7,34.5,1.2,40.9-3.1,4.4-18.8-9.7-21.1-7.4-.2,31.8-14.7,64.6-34,89.5-13.5,17.4-34.1,30.3-53.2,39.8-7.3,3.7-15.3,6.4-22.7,9.7-1.4,1.5,0,1.8,1.5,2,11.6,1.5,17.8-4.8,27.5-7.5s16.6-1.9,24.8-4.2c18.2-5.1,36-19.6,48.7-33.3s11.9-16.3,15.2-16.9c10.2-1.6,7,16.4,6,22.1-5,28.6-29.1,57.9-53.7,72.3-20.5,12-49.2,18.4-67.5,33.5-.9.7-5.6,4.9-4.5,6,33.2-2.1,61.6-17.7,91.5-30,10.4-4.3,24.4-4.9,29-17,3.2-8.4-.1-16.8,6.1-24.9,5.9-7.6,13.6-6.8,21.4-9.6,18.3-6.5,28.7-45.6,23.7-62.7s-12.6-11.7-16.6-20.4c-5.9-13,3.1-29.4,6.4-42.3,5.2-20.5,9-40.1,7.5-61.5-1.7-23.5-14.3-41.9-18.7-64.3-4-20.2.3-37.9-1.3-57.7s-3.3-18.8-4-19.5ZM411.7,465.8c-2.4-2.6-7.2-3.1-10.4-1.5-12.5,6.9-24.7,14.9-37.2,21.7-13.3,7.2-42,15.4-44,32-1.2,9.3,5,18,2.2,25.2s-15.9,16.8-20.7,22.3c-13.4,14.9-26,31.1-35,49s-16.2,29.7-2.4,37.4c13,7.2,21.5-11.9,31.6-14.2s9.9-.8,11.3,4.3l-20.2,43.8c-9.5,13.5-18.4,23-20.6,40.4-2.2,17.1,8.6,22.5,13.8,35.7s.8,20.1,4.2,30.8,18.7,33.7,25.8,36.2c12.3,4.5,11.9-18.5,16.6-21.5,8.4-5.3,15.3,4.3,16.2,11.7,3,24.9-2.8,37.6,15.1,59.9,18.6,23.1,36.9,25.2,64.4,24.5s21.3,5.8,34.8,11.2c16.5,6.6,31.7,10.3,49.7,7.8.5-2.3-.3-1.6-1.2-2.3-3.8-2.7-9.6-4.7-13.7-7.3-26.3-16.4-62-50-76.6-77.4-7.3-13.6-9.1-26.3-14-40-8-22.5-25.3-4.7-38.8-14.2-15.2-10.7-7-36.9-29.4-42.6s-11.6,0-13.1-4.9c-2.9-9.6,4.1-15.5,7.5-23.1,9-20.6,7.2-40.1,8.3-61.7s6-30.4-2-36.9-8.6-1.9-13.5-2.5-2,.4-1.5-1.5,7-9,8.5-10.6c12.5-12.9,27.2-17.5,24.6-39.5s-5.7-8.5-3.1-13c5.3-9.1,20.4-11.2,26.3-16.4s5.4-16.6,15.5-12.3c5.3,2.2,2.1,9.6,2.2,12.8.6,16.8,4.8,18.5,18.3,10.3,32.5-19.7,58.1-40.6,99.2-40.9,9.6,0,32.7,7.2,30.4-9.3s-21.6-7.6-30.3-7.9c-25.9-1-50.7-8.6-73.1,9.4-7.3,5.8-9.4,14.1-20.8,11.7-18.5-3.8,3.5-27.1-5-36.5ZM939,589.5c-.3-30.7,3.2-63.1-12.8-90.7-4.7-8-5.3-11-15.2-7.3,8.4,30,15.2,61.3,24.5,91s.9,3.2,1.4,4.7-.9,2.9,2.1,2.3ZM820,493.5c-1.7-1.5-1.7.3-2,1.4-7.7,26.5-.1,60,3,87.1s-1.5,8.3,2,7.5c3.1-26.8,12-52.5,4-79.5s-5.6-15.2-7-16.5ZM895,703.5c13.8-2.4,19.4-16.8,22.7-28.8,11-39.5-9.8-73.4-16.7-111.2-1.8-.2-1,2.3-.9,3.5.6,29.6-.5,59.3,0,89l-5,47.5ZM942,615.5c-4.4-2.8,1.3,9.5,1.7,10.8,9.4,31.2,11.5,62.4,14.3,94.7s2.5,50.8-21.5,75.5c-12.4,12.8-34.1,19.4-41,37s-1.4,11.2-5.6,17.2c-6.3,9-17.2,7.3-26.4,9.8-22,6.2-38.9,27.5-59.2,37.8-5.8,2.9-19.3,9.2-25.2,10.8-22,6-39.5,2.1-58.8,19.7-5.8,5.3-11.5,16.7-17,19.5-8.9,4.5-24.9,5-34.6,9.4l-44.8,14.7c18.5,2.8,37,.2,55.5-1,20.5-1.3,42.5-.4,61.5-9.5,15.5-7.4,24-21.7,39-30,18.4-10.3,31.5-9.1,50.4-13.6,12.5-3,27.4-15.6,38.9-22.1,7.4-4.1,20.2-8.1,26-12s13.5-15.8,18.1-20.9c29.1-31.4,70-68.8,70.6-115.5,0-6.8-3.1-10.4-4.6-16.5-5.9-24.4-3.4-49.6-11.8-73.2-5.6-15.8-15.3-29.9-25.7-42.8ZM787,773.5c-.9-.9-9.3,5.6-11,6.5-44,24.3-95,28.7-140.7,48.3-21.5,9.2-34.7,21.9-60.5,15.9-24.7-5.7-30-34.3-52.3-36.7s-14.7,2.6-21.7,1.8c-21.2-2.5-27.9-25.3-37.9-41.1-12.9-20.3-27.6-39.6-37-62l-6.8-17.7c.4,12.3,2.3,25,5.7,36.8,5.8,20.2,17.2,38.9,22.8,59.2s2,12,3.5,17.5c10.8,36.9,49.5,37.7,71.5,62.5,4,4.5,2,7.3,9.9,5.9,10.1-1.8,10-5.2,22.4-2.2,25.7,6.1,49.6,24.2,75.7,1.3,14.1-12.4,20.8-23.1,38.7-33.3,34.5-19.7,85.7-21,110.9-51.1,1.1-1.3,7.8-10.7,7-11.5ZM516.4,755.1c-10.6-11.8-21.8-23.9-35.4-32.1,12,24.8,21.7,54.2,54,56.5,1.9-1.7-16.6-22.2-18.6-24.4ZM868,813.5c35.1-1.8,68.4-38.2,61-74l-8.5,19c-11.5,23.5-33.5,38.2-52.5,55ZM755,860.5c-18.3-2.5-35.3,9-52.6,10.9-4.5.5-10.4-.7-14.4.6-2.2.7-14.6,13.1-14.9,15.1-2.4,13.5,22.5,4.6,28.8,2.7,14.2-4.3,31.5-10.9,43.5-19.5,1.1-.8,11.5-8.3,9.7-9.8ZM539,934.5c.5.5,11.4,5.9,13,6.5,25.4,10,68.1-2.6,92.7-13.3,5.9-2.6,14.7-6.7,14.1-14.4s-6.1-8.7-12-8.5c-24.6,1-54.8,16.9-78.8,23.3s-17.5,3.3-27.5,4.5c-1.4.2-2.9.6-1.5,2ZM598,969.5c-39.1-.1-78.7.3-117.2-7.3-9.7-1.9-19.1-4.9-28.8-6.7l17.3,12.2c34.5,19.8,93.9,30.4,127.4,4.1.8-.6,1.8,0,1.3-2.3Z"/>
  <path class="st2" d="M379,90.5c7.9-9.8,18.1-19.7,31.5-21,6.2-.6,14,.9,19.9,0s13.7-6.9,19-9c27.2-10.6,56.7,2.8,84.5-2-4.7,11.2,1.3,22.6,12,27.5,11.1,5.1,19.4.4,30.5,1.5,12.2,1.1,18,9,24.5,18s3.1,6.8,6.5,10c11.8,11.4,24.7,4.2,37.5,0,7.7-2.6,10.2-5,19.4-3.9,11.3,1.4,14.8,11.7,23.5,16.5,15.1,8.2,36.3,2.9,48,17.5-9.8,6,1.1,25.2,15,20.5s4.4-3.3,6-4.5.8-1.5,1.7-2c13.9-8.1,25.5,16.1,37.8,16.1,11.7,0,8.6-16.2,14.2-17.9,9.6-2.9,32.3,4.9,42,8.6,15,5.7,29.1,13.6,42.7,22.1l.6,3.1h-16.5c-1.9,0-4.2,3.6-4.5,5.6-1.5,12.5,12.7,10.7,21,12.9,34.2,9.2,65.2,22.2,87.4,50.6,3.2,4.1,5.4,10,9.2,13.8,8.1,8.2,16.9,4.2,16.3-7.2-.5-8.7-5.8-13.5-4.9-23.2s.9-6.1,5-7.4c2.9,3.6,13.7,11,18.5,11s4.1-1.2,6.5-1,12.4,5,12,8.4c-.6,5.8-17,6.3-13.8,18.8,14.3,21.6,29.3,42.4,40.7,65.7-.2,3.4,4.2,12.3,7.7,12.8,5.2.8,12.7-3.4,13.3-8.8,1.5.2,3.1-1.8,3.9-2.8s3.5-6.4,5.1-5.2c1,6.8,8.2,12.2,6.8,19.3s-2.6,6.5-2.8,6.7c-.4.5-2.9,1.1-4,2.5-1.8,2.2-3.2,6-5,7.5s-1.5-.4-1.9.1.2,2.4-.2,3.1-1.8.8-1.9,1.5c-.4,1.5-.4,13.1,0,14.6s1.5.7,1.6,1c2.1,5.2,2.1,3.1,4,6s0,2.4.7,3.3c1.8,3,3.9,2.1,6.7,2.3s.7,0,1,0c1.6,7.5,11.3,2.1,16,4.5s4,4.4,4,5c.5,4.2.6,17,0,21.1s-1.9,1.3-2.1,2.1c-.4,1.9.4,8.9,0,9.3-.6.6-12.1,0-14,0v-18c0,0-1.4.3-1.7-.2-.6-.9.1-2.7-.5-3.6s-1.7-.1-1.8-.2c-.3-.4-.1-1.8-1-2.5-9.2-8.4-23.7-1.9-23.1,11s5.3,16.6,8.5,18.5c6,3.5,10.9.7,16.5-1s2.6-1.1,4-1c-1,1.7-1,3.1-1,5,0,3.3-.5,9,0,12l1,2c3,8.2,8.4,8.8,16.5,8s7.8-2.5,9.9-2.1.5,5.6,4.6,4.1c-1.1.5-3.9,1.1-4,1.6-3.8,24.6-4,46.2,10.6,67.3s7.7,6.5,9,13c3.1,15.8-1.7,35.1,1.9,52.1,4.4,20.6,8.3,25.5,2,47.9-3.4,12.3-8.8,23.7-20.8,29.2-6.1,2.8-13.2,1.7-17.1,6.9-6.4,8.3-1.2,14.3-.5,23.4,1.1,14.2-2.4,30.2-6.3,43.8-3.9,13.4-10.8,26.9-12.7,40.8-1.1,1.4-1,.7-2,3-4-.6-11.8,6.5-13,.5s3.1-11.9,4.5-17.5c3.1-12.6,4.4-23.3,2.3-36.3l-4.2-12.7c-3.9,10.9-9,21.1-15.1,30.9-7.2,11.6-16.3,21.9-24.4,32.8s-6.4,11.8-10,16.3-10.7,10.7-15,15-9.1,6.6-12.5,11l-26.5,33c-9-.7-27.7,8.8-28,19-4.1,5-6.2,11.5-9.6,16.9-11.1,18-27,33.1-47.6,39.4-7.8,2.4-16.2,2.8-24,5-19,5.2-37.5,14.1-57.8,11.7,5.6-5.9,16.7-5.9,15.8-17.2-1-12.3-12.3-8-20.8-7.8.6-1.8,1.9-2.3,3.5-3,10.4-5.1,22.7-5.1,33.8-8.2,34-9.6,70-32.5,91.1-61,.9-1.2,3.6-4.2-.3-3.7.7-.3,2.8-1.3,3.1-1.7,1.8-2.8,3.5-12.5,5.2-16.6,10.1-25,27.9-47.6,37.3-72.7,3-8.1,5.8-15.9,9-24,22.3-57.3,22.3-109.2,3.2-167.2-3.3-10-11.9-26.3-13.5-35.5s2.5-15.3-2.7-19.3c-3.6-2.8-6.7,3.7-7.3,6.8-2.2,10.5,7.3,26.3,10.8,36.7,8.6,25.2,14.8,54.3,13,81.1-.5,7.6,0,16.4-10.1,13s-6.8-17-8.4-22.6c-10.3-36-28.8-73.4-35.3-109.7-2.5-13.9-.9-25.7-2.2-38.8s-14.7-19-21.8-31.2-6.5-20.5-11.5-29.5-8.5-7.5-7.6-15.2c1.4-12.2,23.3-10.1,18.5-28.6-2.3-8.7-15.1-23.4-19.4-32.6s-4-10.4-4.1-15.4c-22.5,2.2-30.4-18.1-42-32.5-2.7-3.4-9.1-6.4-6-11.1,5.8-8.7,21.2,0,27-8.9-27.5-22.8-58.7-43.6-93-55-11.4-3.8-24.2-8.3-36-3.5-1.2-8-19.2-7.9-25.3-9.2-9.6-2.1-30.2-9.8-30.7-21.8s22.4-20.8,3.7-34.2c-9.5-6.8-24.5-10.4-34.7-3.2s-4.3,17.6-1.3,26.2,0,3.1.2,4.2c-1.8,1.1-7.8,0-9.3-.9s-9.4-10.6-12.2-13c-22.8-19.3-32.3-14.2-59-14.9s11-22.4-2.7-28.3-25.8-2.1-33.3-1.8c-31.4,1.2-55.2,10.2-83.4,22.6-12,5.2-24.8,12.9-30,25.5,12.5-3.9,24.4-9.8,36.8-13.7,11.1-3.5,49-14.5,58.7-14.3,11.9.3,11.9,7.6,17.6,14.5s19.4,13.1,26.8,15.2,8.7.4,12.2,2.3c-6.7-.8-14.2-.3-20.5-1-16-1.8-51-9.7-64.8-3.7s-1.8.7-1.7,1.7c9.3,3.4,19.8.3,28.9,4.6s6.1,7.9,6.9,13.2-.8,2-.8,2.1c-17.8-18.8-47-17.9-67.9-4.4-4.3,2.8-35.7,25.6-37.1,27.4-1.3-17.1-12.8-3.3-19.7.8-10.5,6.3-21.4,8.1-33.3,10.2,2.6,3.6,10.3,5,11,9-10.8.2-23.1,5.3-31.5,12-3.4,2.7-6.6,7.7-9.5,10s-12.3,7.3-17.2,11c-13.5,10-26.8,20.4-40.5,30.2-2.4,11.2,6.3,9.6,13.8,6.8-1.5,4.5-8.6,10.9-13.3,10s-6.4-22-17.1-21-17.5,13.8-24.3,17.8c-12.6,7.5-25.8,8.9-40.3,8.2-1.1-1.1-2.9-1.4-4-2.5-7.7-7.1-2.6-20-10-26.5.2-1.7.5-2.8,1.7-4,5.4-5.3,15.6-7.9,22.3-12-.8,8.6-.3,21.6,12,17.4,12-4.1,7.5-20.7,9-28.4,2.3-11.3,24.5-18.8,33.3-24.2s9.2-6.3,10.2-7.8.9-2.4-1-2c-26.3,9.1-52.2,19.5-78.6,28.4s-24.3,8.5-36.2,11.8-12.6,4-14.8,3.7c-6.6-.8-10-9.2-20.3-2.8s-12.9,17.1-14.9,22.1-.8,2.2-.8,3.7c-9.9,15.1-6,44.1-19.6,56.9-5.9,5.6-9.4-1.9-14.1-4.8s-6.6-2.8-9.3-4.2-3.5-1.3-5-2c-3.4-1.7-6.5-4.4-10-6,.1-.7,0-2.1-1-2,2.8-5.9,8.6-20.8,10-27l5-10c.9-.6,8.9,6.2,11.7,6.8,9.8,2,18.3-8.9,19.3-17.8,1.5.2,3.1-1.8,3.9-2.8,24.1-28.8,46.8-59,70.7-88.1l4.4-1.1c0,.3,3.1,5.3,3.6,5.9,4.2,5.6,9.6,8.5,15.9,4.1s7.2-8.6,7.5-10c2.7-1.4,5.3.3,8.4,0s7-2.4,10-3.1l33.6-22.9c5.7-.4,7.6-1.9,12-5.5,8-6.5,14.9-17.9,11-28.5-.6-2.6,1.3-2,2.9-2.6,2.5-.9,5.1-1.5,7.5-2.6,12.2-5.3,24.3-16.5,38.6-14.9-.6,5.8-.7,18.8,0,24.5,1.6,13.3,15.8,11.6,25.1,8,20.9-8.1,9.8-39.8,0-40.5-4.1-11.4,9.9-10.1,11-19,2.6-1.2,8.6-11,11-14ZM500,92.5c.5-2.6.4-10.7,0-13.5-1.7-14.1-26.2-12.2-35.2-5.4s-7.1,11.1-9.8,18-3.8,2.9-7.5,5c-23.6,13-33.4,35.3-52.4,53,18.3-2.1,34.1-13.4,51.8-17.7,7.6-1.9,14.9-3.7,22.2-.3s11.7,11.6,22,8.5c6.4-1.9,12.1-14.2,13-20.5,2.6.5,11.1-3.5,15.5-4,14-1.6,29.4.5,43.1-1.8,8.2-1.4,11.1-1.8,1.7-6-18.4-8.1-40.8-12.4-60.8-13.2-1.9,0-4,1-3.5-2ZM359.7,223.2c1.9-1.7,4.7-8.5,4.3-11.1s-2.9-3.4-3.6-5.5c-2-6.1.4-19.8-8.2-21.8s-23.4,1.3-27.6,11.1,5.6,12.4,8.8,15.7c5.7,6.1,17.8,19.3,26.2,11.7ZM814.3,187.8c-8.8,11,14.1,33.8,29.9,27.4,10.2-4.1-1.7-21.3-7.3-25.2s-18.3-7.7-22.6-2.3ZM888,229.5c0,15.2,10.4,31.6,27.4,24.9,5.8-2.3,10.1-3.4,4.6-8.3s-20.8-15.3-25.6-16.4-4.2-.2-6.3-.2ZM895.7,286.7c-2.5.6-10.3,6.1-11.7,8.3-4.8,7.4-1.4,31.2,5,38s22.9,11.5,29.4,9.3,8-11.1,8.9-14.1c6-19.3-9.7-46.5-31.6-41.6ZM953.7,321.7c-2.7.5-5.9,2.6-6.5,5.5-1.1,4.9-1,23.4-.2,28.7,1.2,7.6,12.6,7,17.4,3.6,5.4-3.8,8.5-21.2,7.4-27.4s-11.4-11.7-18.2-10.3ZM1079,447.5c-2.1-10-2.5-20.3-2-30.5s5.8-37,1.8-44.8-16.4-10-19.5-10.5c-11.3-1.8-27.4,2.8-28.3,16.2-1,14.2,14.3,41.7,22.6,53.5,2.2,3.1,12.1,15.5,14.9,16.1s7.2-.4,10.5,0ZM1100.7,573.7c-5.5,1.3-7.2,7.6-7.3,12.5s1.7,20.4,3.1,24.3c3.8,10.7,22.2,13.2,23.5,1.5s1.1-28.8-5-35-9.6-4.4-14.3-3.3Z"/>
  <path class="st2" d="M282,376.5c-26.3,9.2-51.9.8-65.2,32.3-7.5,17.7-8.3,36.9-18,54-3.8,6.7-11.2,12.5-9.8,21.1,1.6,9.7,12.3,8.4,19.8,6.9s20.4-11.2,22.2-4.6c2.6,9.5-5.8,14.7-10.4,21.4-11.6,16.6-20.3,36-34.1,50.9s-10.3,8.2-13.5,12.5c-5.1,6.7-7,25.9-9.7,35.3-6.4,22-20.7,49.7-20.4,72.7s12.5,35.4,19.9,51.1,2.4,7.4,3.9,10.1.7,2.7,2.2,1.3,7.8-33.5,9.5-39c4.5-14.8,11.4-32.2,20.1-44.9s8.9-13.2,11.4-11.1c5.4,14-2.8,27.8-5.7,41.8-6.7,32.9-4.8,67,8.2,98.2,10.1,24.2,26.5,28.6,39.5,47.5s5.5,9.4,7.1,18.9c3.3,20.1,16.7,34.1,24.1,51.9,2.1,5.1,3.1,10.8,4.8,15.7-12.2-4.4-21.8-16.8-34-4.2-17.4,17.9-4.4,55.4,21.3,52,4.1-.5,16.1-4.8,18.8-7.7,7.1-.6,13.4,1.4,19.5,5s8.7,6.7,11.5,9.5c6.1,6.3,11.5,20.4,22,10.5.9,2.5,1,4.6,1.8,6.7,5.5,14.5,12.1,11,23.6,16.4,29.3,13.6,32.1,58.9,74.1,52.8,6.8-1,19.3-9.9,22.6,2.1-5.1,14.7,5.5,24.8,18.9,27.6s26-.8,27.1-17.6c2.3-3.9-.6-5.7,3.7-8.8,9.5-7,25.1-5.7,36-10s14.4-8,14.3-13.2c13.6,2,21.4-11.4,35-11,.3,4.1,6.3,5.4,9.6,5.9,17.5,2.4,37.9,2.5,55.9,4.1,13.6,1.3,27.3,3.4,40.9,5,16.4-1.1,13.2-24,28.8-22.8s20.8,6.2,22.7,9.4c5.7,10.1-14.5,25.9,4.6,36.4,11.4,6.3,37.8,12.7,50.3,9.3,1.5-.4,7.8-1.9,7.2-4.3,5.5,1.4,20.8-5.4,25-9.5,2.7-2.7,2.9-5.7,4-7.5,11-17.7,23.6-19.5,41-28.5,4.3-2.2,6.9-6.2,12-5.1,6.3,1.3,7.1,4.9,5.7,10.9s-10.4,17.4-13,21c-13.4,18.9-32.4,37.2-55.8,41.7-1.1-2.4-7.8-8.3-10.3-9.2-6.5-2.5-11.3.4-16.2,4.2-3.8,2.9-10.7,9.3-10.5,14-6.3,4.4-19.9,6.6-17.8,16.3s15.9,5.9,22.8,5.7c.3.5,4.5,3.8,5.3,4.2,10.4,5.3,17.6-2.9,26.7-4.2s14.3.3,21,.5c-10.9,6-20.4,13.1-29.3,21.7s-.7,2.6-3.6,1.8c-2.5-2.8-10-5.2-13.8-4.4-3.6.8-19.3,13.6-20.2,16.4-5.3,14.2-23.7,13-36.2,16.3-22.4,6-34.6,15.3-59.7,11s-3.7.4-3.1-2.3c12.1-3,20.7-15.1,25.9-25.6s2.3-7.5,3.1-8.4c1.3-1.3,4.5-1.2,7-4.5s2.7-8.7,6-11c4.7-3.4,17.7-2.7,18.1-12,.7-17.3-30.1-6.7-38.8-4.7-3.1.7-10.1.5-12.2,1.3.6-2.5-1.3-2-2.6-2.8-13.5-7.8-21-7.2-32.4,3.3-1,.9-1.5,3.1-2,3.5-5.3,4.4-57.9,9.8-69.2,12.3s-17.9,5.1-26.8,7.7c0-3.1-3.8-6.6-4-10,2.6-3.9,4.7-9.4,7-13.3s1.5-.8,2-1.5c4.3-7.1,19.1-29.5,20.6-35.2s.4-14.6-7.5-12.6c-5.7,1.4-18.2,9.4-24.8,12.3-34.4,15.2-64.4,25.5-102.4,15-7.2-2-12.6-6.3-20.8-4.7-.5-1.2-11.9-10-14-10.5-5.7-1.6-13.7,2.1-12.9,8.8s4.3,11.3,8.8,11.8c-.5,2.1,1.1,2.2,2.5,3,8.9,5.5,20.4,8.1,20.5,21-1.4,0-3,1.2-5.2.8-4.5-.8-14.5-9.4-18.7-3.3-2.2,3.3-2.1,12.8-.8,16.7,4,12.2,31.8,24.9,39.1,11.7,1.1-2.1,2.7-10.7,2.6-12.9,15.5,2.2,27.8,11.8,43.9,4.4s9.2-8.5,13.2-3-2,12.2-2.1,17.1c0,5.2,2.6,11.3,5.2,15.8,3.8,6.3,9.8,9.2,5.8,18s-8.2,6.3-10,6.7-2,0-3,0c-7.2.3-25.2-4.1-29,5-5.8-1.4-10.2-7.6-14.8-11-9-6.6-19-11.6-28.5-17.2l-72.7-31.8c.1-1-4.6-10.6-5-11,2.4-8.1,14.7-1.8,20-3.4s6.7-3.6,4.8-6.4c-66.7-27.6-131.3-68.1-172.9-128.1-1.7,0-2.1-.7-1.8,1.3,1.8,10.3,10,20.9,10.8,32.2s0,13.7-5,12.5c-1.9-1.6-5.5-3.6-8-4-7.3-6.1-12.7-7.7-16.1-17.4s-4.8-18.8-9.6-28.4c-7.4-15-24.9-28.8-24.4-45.6s4-16.2,4.9-23.1c2.8-20.4-1.1-39.8-17.4-53.4-3.6-3-8.1-4.8-11.5-8-1.6-11.1-13.2-19.3-16-30s-1-.9-1-1c-.3-2-.2-6.9,0-9s1.8-5.2,2-8.5c1.9-25.6-8.2-46.1-16-69.5-1.7-.2-.9,2.3-1,3.5-.6,15.8-1.4,38.1,0,53.5-1.3.1-2.7-.1-4,0,0-1.8-2.7-3.4-3-4-8.2-16.8-20.6-47.1-22-65.5-3-39.6,17.8-71.3,20-108.9,1.3-22.8-4.5-38,3.9-61.1,10.9-29.7,25-58.7,33.7-89.3.7-2.3,1.9-5.6,2.2-7.8.7-5.3-.8-11.3.6-16.4s16.6-12.9,22-17c18.8-13.9,36.5-32.9,55-46s41-12.2,62.5-12ZM215.7,895.8c-11,1.8-12.9,18.2-11.8,27.3,1.7,14,21.8,18.3,23.9,1.9s1.3-22.6-1.4-26.4c-2.5-3.5-6.9-3.4-10.7-2.8ZM266.7,1015.8c2.9,3.2,1.9,8,9,9.5,18.9,3.9,8.2-21.9-4.4-24.5-3.6-.7-18.3,0-19.1,4.4s12,7.8,14.6,10.7ZM330.7,1041.7c-5.6,1.6-2,14.3.5,18.1,8.4,13.1,38.6,12.1,27.7-6.7-5.2-8.9-18.1-14.4-28.1-11.5ZM742,1082.5c-23-12.5-53.4-15-79.4-12.9-4.5.4-29.1,5.1-30.6,8.4s1.2,1.5,2,2c31.7,17.4,61.3-.2,93.5,1.5,3.4.2,7.8,1.4,11.3,1.7s3.4,1.2,3.2-.7Z"/>
  <path class="st0" d="M586,191.5c-3.5-1.9-8.5-1.2-12.2-2.3-7.4-2.2-21.9-9.3-26.8-15.2s-5.7-14.2-17.6-14.5c-9.7-.2-47.5,10.8-58.7,14.3-12.4,3.9-24.3,9.8-36.8,13.7,5.2-12.6,18-20.3,30-25.5,28.3-12.3,52-21.3,83.4-22.6,7.5-.3,27.1-.9,33.3,1.8,13.8,6-15.7,27.9,2.7,28.3,26.6.7,36.2-4.4,59,14.9,2.9,2.4,10.8,12.2,12.2,13s7.5,2.1,9.3.9c0,.4,1.3,1.7,1.8,2,10,2.1,19.8,7.4,30.2,5,.5,11.9,21.1,19.6,30.7,21.8s24,1.2,25.3,9.2-.4,5.4.2,8.3c1.7,8.1,16,16.1,23.1,19.9s18.4,3.9,13.5,13.2-13.5,6.8-7.6,14.3,25.7,8.6,33.4,12.1c25.5,11.6,63.5,56.3,70.8,83.2,6.8,24.8,2.9,50.8,5.5,76-2.9.5-1.6-.7-2.2-2.2-5.9-14.4-13.5-29.4-11.8-45.3.4-3.4,2.9-7.3,2.9-10,0-4.6-11.4-14.7-14.8-19-15.7-19.7-30.2-46.7-53-59-14.6-7.9-29.5-6.8-45.2-10.8-37.6-9.6-70-36.1-108.6-43.4-7.8-1.5-18.4-1-25.2-2.8-6.9-1.8-14.5-13.2-22.5-14.5-15.2-2.4-37,5-51.1,10.8-13.6,5.6-32.4,19.1-46.7,17.1-7.8-1.1-12.8-9-18.7-13.3-10.9-8-21.1-9-33.9-5s-37.3,15.5-48.3,21.7c-22.8,12.8-34.6,32.6-62.2,41.8-10.8,3.6-28.2,4.4-33.7,16.3-3,6.6-2.4,15.8-7.8,20.2s-19.9,8.3-26,10.5c-21.5-.2-44.3-.9-62.5,12s-36.2,32.1-55,46-20.5,10.9-22,17,.1,11.2-.6,16.4-1.5,5.5-2.2,7.8c-8.8,30.5-22.8,59.6-33.7,89.3-8.5,23-2.6,38.3-3.9,61.1-2.2,37.7-23.1,69.3-20,108.9s13.8,48.7,22,65.5l-4.3,4.7c-5.7.1-2.7,1.2-4,4s-3.5,2.2-3.7,3c-.5,2.2.2,4.9,0,7.3l-4-4.7c-.5-2.3,1.3-6.1-2-7.3-.3-1.9.2-4.1-.2-6.2-2.2-11.1-15.9-18-22.4-27.6-16.2-24.1-8.2-42.5-11.5-67.5s-5.8-12.8-7.2-18.8c-2.4-10.1.5-19.6,6.3-27.8.5,2.3,6,9,7.3,11.3s8,16.1,8.8,16.7c3,2.1,11.5-7.8,12.7-10.7,5.6-14.1-5.2-26-3.7-38.2s2.9-6.7,3.7-9.8c2.6-9.5,6.1-19-.7-27.7-7.3-9.3-23.9-5.8-26.7-16.3s-1.8-34.6,1.2-45.2c6.2-21.8,30.3-38.2,18.4-62.4l-14.9-19.6c2.8-.7,5.1-1.7,8-2s4.7.3,5,0-.3-2.3,0-3.2,1.4-.8,1.6-1.1c2.5-4.9,3.3-15.6,3.3-21.7,14.3,28.1,21,59.6,23.5,91,5.5-6,9.8-13.1,12-21s1.9-15,3.7-22.3,3.9-9.5,4.6-14.4c2.5-17.1-5-36-1.2-52.3.4-1.7,0-3.5,2.5-3,0,4.4.8,18.7,2.6,21.9s4.5,3.5,7.8,3c16-2.4,20.4-36.7,5.6-40.5s-6.7-.4-10-.5c0-1.2-1.1-2.9-1-4.5.5-7.4,5.3-18.7-6.3-16.3-10,2-32.5,27.2-39.7,35.8l-6.8,1.2c-.6.9-.9,4.6-1.2,4.8s-7.4-.8-8.3-1-3.2-5.7-8.5-3.7-2.8,5.3-4.2,3.7,1.7-4.8-2-4c1.3,5.4-2.9,4.2-3.8,5.2s-2.2,6.3-2,6.6,1.6,0,1.8.8c.4,1.6-.2,3.7,0,5.3-2,2.4-5.4-9.5-5.8-10.6s-2-1.5-2.1-2.1c-1.6-6.9,2.7-10.4,3.7-16s-.3-6.2.3-8.6,1.6-.5,1.9-1.5-.2-2.9,0-3.2,3.8-.2,4,0c.4.3-1,12.9,2,9-.3-3,.5-6.7,0-9.6s-3.1-1-2-6.9,5.4-4.1,5.9-4.6-.4-5.7,0-7.3,4.1-5.8,5-10.7c3.5,1.6,6.6,4.3,10,6-3.3,2.2,2.6,1.5,1,4s-3.9,0-2,2,7.6.3,6-4c2.7,1.4,6.7,2.6,9.3,4.2,4.7,2.9,8.2,10.3,14.1,4.8,13.6-12.9,9.7-41.8,19.6-56.9,0,13.9,7.9,20.1,21.4,17.9,9.6-1.5,18.2-13.8,18.9-23.1s-4.7-11.2-4.3-17.8c2.2.3,11.8-2.9,14.8-3.7,11.9-3.3,24.4-7.8,36.2-11.8,26.4-8.9,52.3-19.4,78.6-28.4,1.9-.5,1.8.6,1,2s-8.2,6.6-10.2,7.8c-8.9,5.4-31.1,12.9-33.3,24.2-3-.3-5.5.1-8.2,1.3s-8.6,7.2-12.8,9.7c-6.7,4.1-16.9,6.6-22.3,12s-1.5,2.3-1.7,4c-2.4-2.2-11.3-6.7-14.3-5.9s-2.8,6-4.2,8.9c-4.6,9.9-19.9,17-8.5,30-.3.4,1.3,3.9-3.6,4s-7.7-4.8-9.9-2-7.7,17.3-8.3,19.7c-3,12.2,2.2,28.3,17.1,20.1,4.4-2.4,7.5-9.1,9.4-13.6s.9-9.6,5.2-10.3c0,11.4,4.3,20.2,17.3,17.8,5.3-1,17.4-14.2,18.5-19.5s-.5-15.8-4.8-20.3c14.5.8,27.7-.7,40.3-8.2,6.8-4,17.5-17.2,24.3-17.8,10.7-1,12.9,20.2,17.1,21s11.8-5.5,13.3-10c3.7-1.4,2.5-2.7,5-5.5s4.7-5,7-7c11.5-10.1,30.7-17.9,32-35.5,2.9-2.2,6.1-7.2,9.5-10,8.4-6.8,20.6-11.8,31.5-12,7.8,1.9,11.6,6.2,20.4,4.9,12.1-1.7,15.4-17.2,21.6-24.9s32.9-24.6,37.1-27.4c20.9-13.5,50.1-14.5,67.9,4.4,0,.6-.1,1.5,0,2s.8.7,1,1c8.8,14,21.3-.4,32.9-2.5s15.7,1,20.3,8.8,3.7,11.8,7.8,16.2c9.6,10.4,56.8,15.9,71.5,16.5,6.4.3,21.9,1.6,25.6-3.5,4.1-5.8.3-10.9-4.7-14.4-12.6-8.6-43.5-22.6-58.3-28.7s-29.2-10.8-44-12.5ZM60,367.5c-1.6-1.6-5.6,2.4-4,4s6.1-1.9,4-4ZM40.3,403.8c-1.4,3,.9,7.7,4.1,6.7s1.5-17.8-2-12,0,3.2-.5,4.3-1.5.8-1.6,1ZM64,403.5h-4v2h4v-2Z"/>
  <path class="st0" d="M444,1097.5c8.1-1.6,13.6,2.7,20.8,4.7,38,10.5,68,.1,102.4-15,6.6-2.9,19.1-10.8,24.8-12.3,7.9-2,9.1,6.7,7.5,12.6s-16.3,28.1-20.6,35.2-1.6.8-2,1.5c-2.3,3.8-4.4,9.4-7,13.3-9.8-3-21.3-6.9-31.4-2.9s-9.1,15.1-8.6,23.9-.3,2.9,0,4.2,1.8,2.8,2,2.8h14c.4,4.9-7.6,3.7-8,4-2.3,1.9,1.8,1.9,1.9,2,1.5,2-1.6,1.8-1.9,2.7-.6,1.6-.6,6.9,0,8.5s1.8.8,1.9,1.5c1,4.7-1.8,8,5.1,10.8s3.2.3,3.9.5c13.8,5,23.1,7.2,36-2,2.4,8,10.6,11,18.4,9.9s7.3-3.1,11.3-3.6c10.6-1.6,15.7,2.2,25.2,3.7.6,3-1.5,1.9-3.4,2-6,.3-5.9,1.7-7.2,2s-3.1-.3-4.6,0-4.3,3.9-4.4,4.2c-.6,1.7-.7,11.8,0,13.5s7.8,8.1,8.4,8.2c2.2.5,5.3,0,7.8,0s3.7-.7,3.5,1c-5.7.6-12.9,1.8-18.6,1.1s-.7-2.4-4-2.2-.9,1.9-2.9,2.2c-3.9.5-10.6-1-13.9,0s-.2,1.8-1.2,2c-2.3.5-1-1.7-2.1-2s-11-.3-12.6,0c-4.3.8-2.2,11.5-2.7,12s-3.9-.3-5.3,0,.1,1.9-3.1,2.1-3.4-1.9-4.2-2.1c-4.2-1-9.7-1-14.6-2.2s-10.6-2.8-14.4-3.8-8.4.5-11.9,0-7.9-3.7-10-4c-3.2-.5-6.8.4-10,0-1.8-.2-1.6.3-1.5-2h14c.1,0-.5-1.7.7-2s2.5.3,4-.3,2-3.7,2.3-4.7,0-.7,0-1c5.6,2.1,4.7-13.3,3.9-14s-3.6.4-3.9,0,.3-2.4-.3-3.7-6.1-3.8-5.7-6.3c1.8-.4,9.3-5.1,10-6.7,4-8.8-2-11.7-5.8-18-2.6-4.4-5.3-10.5-5.2-15.8,0-4.9,4.9-13.2,2.1-17.1s-9.4,1.2-13.2,3c-16.1,7.4-28.4-2.2-43.9-4.4-.4-6.4-10.9-12.7-17-13-.1-12.9-11.7-15.5-20.5-21-1.3-.8-2.9-.9-2.5-3,3.5.4,12.3,1.3,15-.5s3.7-7.8,3-9.5Z"/>
  <path class="st2" d="M57,457.5l14.9,19.6c11.9,24.1-12.1,40.6-18.4,62.4-3,10.6-4.1,34.7-1.2,45.2s19.4,7,26.7,16.3c6.8,8.7,3.3,18.2.7,27.7s-3.4,6.7-3.7,9.8c-9.3-3.9-22.8-10.8-24.9,4.6s-.6,14.1,0,16.4c-5.8,8.3-8.7,17.7-6.3,27.8s6.4,12.8,7.2,18.8c3.3,25-4.7,43.5,11.5,67.5,6.5,9.6,20.2,16.5,22.4,27.6s0,4.4.2,6.2,0,.7,0,1c-3.6-.7-5.7-3.3-9.6-3.9-4.4-.6-7.2.8-10.4.9s-2.7-1.4-4-1c1-5.5-.1-21.8-6-24.5s-3.2-.5-5-.5c-1.9-4-5.6-5.2-7.8-9.7s-3.4-12.1-3.2-18.9,4.1-20-6.9-22.5c-1,3.7-2.7,8.5-4.8,11.7s.1,1.8-2.2,1.3c-10.7-49.3-1.5-99.2,4-148.5,2-17.7,1.7-33,6.3-50.7s9.6-24.9,7.5-28.6-9.5,1.4-12.3,3.8c-1,0-.4-1.3-.5-2v-1c-.3-10.3.2-20.7,0-31v-1c0-4.3,0-8.7,0-13,11.3,6.4,12.1,8.1,18-4s1.5-2.3,2-4,0-.7,0-1c1-1.6,2.2-2.4,4-3s1.4.2,2,0Z"/>
  <path class="st2" d="M1014,926.5c1.6-2.3,3.8-3.2,4.1-6.5.4-4.7-3.2-8-3.1-12.5,23.5,2.2,31-31.6,57-20-.9,7-5.4,12.9-6,20.5s4.8,31,0,36c-1.3,1.4-4.2,1.6-6,1.5,0-6.2-.6-18-6.3-21.2-9.8-5.5-22.2-.5-28.5,7.9-7.8,10.3-9.6,23-.6,33.2,13.1,14.9,18.3-.1,27.5-6.4s2.8-1,3.9-1.5v5.2c-13.5,23.7-36.6,66.7-68,68.8-6.4.4-11.2-2.1-17,3.8s-2.7,5.5-4,8.2c-6.2,13.4-12.6,24.3-28,28-.6-.6,1.4-3.9,1.8-4.7,10.3-18.4,23.3-36,33.2-54.6s1.5-.7,1.6-1.1c3.2-7,1.5-14-7.2-13.6-4.5.2-25.7,16-25.5.5s3.4-17.7,5-21.6,9.3-11.5,10-16c8.6-3.8,13.7-10.4,24-10,6.5.2,10.3,3.1,16.9-1.6,4.3-3,11.3-16.9,15.1-22.4Z"/>
  <path class="st2" d="M126,391.5c0,4.6-6,6.1-6,16-2.5-.6-2.1,1.3-2.5,3-3.8,16.3,3.7,35.2,1.2,52.3s-3.5,9.6-4.6,14.4c-1.7,7.4-1.6,14.9-3.7,22.3s-6.4,15.1-12,21c-2.5-31.4-9.2-62.9-23.5-91,0-1.7-1.2-5.4-3-6,0-1,0-2,0-3s-.9-1.3-.8-2.5c0-5.1,3.5-5.2,6.4-8.5s1.2-2.7,1.4-3c7.2-8.6,29.7-33.7,39.7-35.8,11.5-2.4,6.8,8.9,6.3,16.3s1,3.3,1,4.5Z"/>
  <path class="st2" d="M252,1105.5c.9-1.7,1.3-2.2,3.4-2.1,5.7.3,19.5,3.8,25.8,5.4,19.1,4.7,34.9,9.5,46.6,26.4,4.4,6.3,5.9,14.5,15.2,16.3.5,3.1,3.2,5.3,6,6,1.2,4.1,2.7,7.9,4,12s-.3,2.2,0,3c-31.4-2.7-57.5-18.9-81.5-38s-11.4-13.2-19.5-12c-.1-4.6.2-9.4,0-14l1-.5-1-.5c0-.7,0-1.4,0-2Z"/>
  <path class="st1" d="M107,804.5c1.3-.1,2.7.1,4,0,.7,8.3,4.6,21.6,15,21-.2,2.1-.3,7,0,9l1,1c2.8,10.7,14.4,18.9,16,30s-1.4,21.4-7.4,25.6c-11.2,7.9-30.2,4-36.1-8.6s-3.4-20.5-3.5-32c1.5-3.6,5.1-8.6,5-12.5s-1.9-6.7-4-7.5c0-11-5.7-24.2,10-26Z"/>
  <path class="st2" d="M196,1050.5c-.7,2.2,1,5.1,1,7,.1,5-.7,7.4-6,5.5-12-4.2-11.7-16.6-15.8-26.3s-1.9-2.5-2.2-3.3c-7.1-16.4-14.9-34.1-35-19-.1-2.7-3.2-15.2-4.3-18.2-6-15.3-20.8-24.2-18.5-44.2s6.8-11.3,12.3-10.6c6.1.8,9,7.3,12.5,10.5,5,4.5,8.8,5.9,12.8,12.2,6.4,9.8,7.8,20.9,11.7,31.3,7.5,19.7,18.5,38.6,31.5,55Z"/>
  <path class="st1" d="M990,879.5c3.3.3,9,4.2,10.2,7.3,2.2,5.5-1.3,8.5-1.1,13.1.3,11,12.7,16.8,14.9,26.6-3.7,5.5-10.8,19.4-15.1,22.4-6.6,4.7-10.4,1.8-16.9,1.6-3.2-8.6-9.3-15.9-13-24.5s-7.2-19.4-7-27.5,19-19.7,28-19Z"/>
  <path class="st2" d="M585,1193.5c18.9-13.5,29.1-21.6,54.2-15.7,1.9.4,5.8,2.9,7.2,2.6,2.1-.5,8.4-13.3,15.2-13.9s9.5,7.8,12.4,12.3c.6.9,2,.6,2,.7.7,1.3.7,6.5,4,8-2.1,4-13.6,12.7-17.1,7.3-5.1-7.8.5-18.7-14.9-12.3.9,5.9,7.6,9.6,5.6,16-2,6.3-8.6,5.7-13.6,5-9.5-1.5-14.6-5.3-25.2-3.7-4.1.6-7.6,3.1-11.3,3.6-7.8,1.1-16-1.9-18.4-9.9Z"/>
  <path class="st1" d="M252,1105.5c0,.6,0,1.3,0,2s0,.7,0,1c.2,4.6-.1,9.4,0,14-4.2.6-10.9,4.7-16.6,4.9-13.5.5-25.5-12.7-28.8-24.9-4.5-16.6,9.7-25.3,24.7-20.7,7.9,2.4,19.9,16,20.8,23.7Z"/>
  <path class="st1" d="M937.8,1071.7c.8,1.4.3,17.1-.2,19.8-1.8,9.8-15,20.8-25,21-6.8.1-18.6-4.5-20.3-11.8-4.8-20.8,18.4-36.3,37.1-33.1,1.5.3,8,3.1,8.5,4Z"/>
  <path class="st1" d="M1060,945.5c0,2.3-.3,8.5-1,10.3s-2.1,1.3-3,1.7-2.4.5-3.9,1.5c-9.2,6.2-14.3,21.3-27.5,6.4s-7.2-22.9.6-33.2c6.3-8.4,18.7-13.3,28.5-7.9s6.2,15,6.3,21.2Z"/>
  <path class="st1" d="M173,1033.5c-2.2,12.9-5.3,33.6-23.7,25.2s-13.8-21.2-13.3-33.7,2.1-8.5,2-10.5c20.1-15.1,27.9,2.6,35,19Z"/>
  <path class="st1" d="M843,1096.5c3.5,8,4.7,23.3,0,31-9.1,1.3-16.3,9.5-26.7,4.2s-5-3.7-5.3-4.2c-.9-1.5-3.3-9.6-3.7-11.8s-1.2-8.1-1.3-10.2c-.1-4.6,6.7-11,10.5-14,4.9-3.8,9.7-6.7,16.2-4.2,2.5.9,9.2,6.8,10.3,9.2Z"/>
  <path class="st1" d="M727,1154.5c-.9.8-2.2,6.4-3.1,8.4-5.2,10.6-13.7,22.6-25.9,25.6s-15.1.3-18-1-3.3-6.7-4-8c1-10.1,2.6-21,12.8-25.7,8.8-4.1,29.1-3.4,38.2.7Z"/>
  <path class="st1" d="M824,1073.5c-1.2-.3-9.1-5.4-10-6.8-1.4-2.4-2.6-6.1-2.9-8.8-.5-4.1.4-17.4,1.1-21.7,1-6.2,4.5-9.9,11-8.5s22.1,23.1,29.7,28.8c-1.1,1.8-1.3,4.8-4,7.5-4.2,4.1-19.5,10.9-25,9.5Z"/>
  <path class="st1" d="M1106,803.5c1-1.2,5.8-7.5,6.2-7.8,5.7-3.2,12.7,8.9,15,13.1,5.1,9.5,6.5,15.5,2.6,25.9-7.8,20.9-29.6,7.6-29.8-9.8s2.7-15.4,4-18.5.9-1.6,2-3Z"/>
  <path class="st1" d="M519,1203.5c2.3,5.6,8.3,8.6,10.1,14.5,1.3,4.5,0,5.4-1.1,9.5s0,.7,0,1c-3.4.5-5.2,4.3-8.5,5-3.6.7-17.5.3-20.4-1.5s-7.5-10-8.3-11.7c-1.5-3.5-2.3-8.1-.8-11.7,3.8-9.1,21.8-4.7,29-5Z"/>
  <path class="st1" d="M1044,820.5c7,2.5,12,9.2,12.9,16.6s-3,27-12.4,28.3c-17.5,2.5-18-17.7-15.4-29.9,4.3-4.3,11.5-10.8,15-15Z"/>
  <path class="st1" d="M72,420.5c0,1,0,2,0,3s-1,1.1-1,2.4c-.4,10.6,3.2,22.2-6,29.6-2.9.3-5.2,1.3-8,2s-1.5-.2-2,0c-5.2-9.8-10.9-16.4-9.9-28.4,1.8-20.1,14-22.2,26.9-8.6Z"/>
  <path class="st1" d="M831,1151.5c7,7.9-10.2,27.5-18.4,30.1-14.4,4.5-20.1-5.1-15.6-18.1s16.7-15.6,20.2-16.4c3.8-.8,11.3,1.5,13.8,4.4Z"/>
  <path class="st1" d="M624.2,1210.7c3.2-3.1,27.7-2.8,32.6-1.5,9.6,2.5,11.1,15.8,3.1,20.8-7.9,5-31.5,3.8-36.2-5.7s-2.4-10.7.4-13.5Z"/>
  <path class="st1" d="M353,1169.5c9.4-2.4,29.1-4.5,36.9,1.6,6.5,5,9.9,20.2.5,21.4-6.9.8-20.9-3.1-26.4-7.4s-10.4-10.9-11-12.5.2-2.2,0-3Z"/>
  <path class="st1" d="M86,808.5c1.1,7,2.3,14.3,5,21l-15,10c-.1-.3-3.7-2.9-4.8-4.7-6.2-9.9-5.5-18-5.2-29.3,3.2-.1,6-1.5,10.4-.9,3.9.6,5.9,3.2,9.6,3.9Z"/>
  <path class="st1" d="M369,1137.5c.4.4,5.1,10,5,11-1,9.2-18,10.7-25,9s-5.5-2.9-6-6c-1.7-10.4,0-20.5,12.4-18.9s13,4.3,13.6,4.9Z"/>
  <path class="st1" d="M988,1031.5c-.9,4.1,3.1,7.3,3.8,10.7,2,9.4-2.2,17.4-12.3,18.3-12.8,1.1-9.9-7.8-12.5-17,1.3-2.8.9-5.1,4-8.2,5.8-5.9,10.7-3.3,17-3.8Z"/>
  <path class="st1" d="M958,960.5c-.7,4.5-8,11.4-10,16-25.6,2-15.1-34.2,5.3-29.8,5.9,1.3,5.5,9.1,4.7,13.8Z"/>
  <path class="st2" d="M97,830.5c2.1.8,4,5.3,4,7.5,0,3.9-3.5,8.9-5,12.5s-7.5,18-8.5,18c-2.6-2.5-5.6-6.6-7-10-2.5-5.9-2.6-14.8-4.5-19l15-10c1.6.9,4.7.5,6,1Z"/>
  <path class="st1" d="M51,779.5c1.8,0,3.3-.3,5,.5,5.9,2.7,7,19,6,24.5-1.9,10.2-22.3,7.2-22.1-10.5s.8-14.5,11.1-14.5Z"/>
  <path class="st1" d="M217,1041.5c2.5.4,6.1,2.4,8,4,2.9,2.6,2.4,3.1,1.7,7.2-3.4,21.8-17.5,3.5-29.7,4.8,0-1.9-1.7-4.8-1-7s3.9-4.5,4.5-5c4.1-3.4,11.3-4.7,16.5-4Z"/>
  <path class="st0" d="M31,469.5c0-2.5-.3-5.7-.4-8.7,0-4.5-2.5-19.1,1.4-21.2s2,4.3,5.9,2.9c-2.3-2.7,3.8-9.1,4-6.5-1.7,3.9,2,4.7,2,5,0,2-4.4,6.3-6.1,7-2.7,1.1-6.4-2.6-5.9,3.5h14c1-5.8,2.5.7,3.7,2.8,1.8,3.1,2.8-.5,1.3,6.2s0,.7,0,1c-2.3-.7-3.4,2.3-2,4-5.9,12.1-6.7,10.4-18,4ZM50,456.5c-1.4-.7-2.7.6-2,1,1.4.7,2.7-.6,2-1Z"/>
  <path class="st1" d="M99.7,931.2c-6.3,8.8-24.9-6.2-16.5-20s13.4-5.1,16.7,1c2.2,4,2.3,15.6-.2,19.1Z"/>
  <path class="st0" d="M38,419.5v16c0,.2-4,.2-4,0v-16c0-.2,3.3.1,4,0Z"/>
  <path class="st0" d="M31,515.5c-.2-1,0-.8,0-1v1Z"/>
  <path class="st0" d="M31,483.5c0-.3,0-.7,0-1v1Z"/>
  <path class="st0" d="M504.5,1235.5c.6.3.6.7,0,1v-1Z"/>
  <path class="st2" d="M782,79.5c.4,1.4,5.5,6.6,7.1,7.5,5.2,3,21.6,3.7,27.5,2.6,2.8-.5,2.9-3.7,5-5.1s22.9,1.7,26.9,2.3c11.5,1.6,22.4,4.9,33.6,6.9,2.7.6,1.1,2.7,1.2,2.8,3.8,4.3,12.6,2.6,17.8,4.2-.7,6-6.4,10.5-4.3,16.7,3.7,10.9,20.6,14.7,25.3,25.3-.9,4.9,3,18.2,6,22-20.3,10.5-31.2-15.3-44.7-24.8s-32-13.5-44.8-25.2c-2.1-1.9-2.9-5.8-6.5-6,0-1.1.2-2.1-.2-3.3-.6-1.7-13.4-11.5-15.3-11.7-4.7-.5-14.5,6.4-15.5,11-5.3-3.4-12.5-3.9-17.9-6.6-9.2-4.7-16.8-18.4-1.1-18.4Z"/>
  <path class="st3" d="M1040,179.5c6.4-.9,3.1,1.7,4,5.3s5.5,4.6,5.7,5c.6,1.6,0,3.8.7,4.8s3,.6,3.4,1.1-.1,2.4.5,3.5,7.7,8.8,9.4,11.1c2.8,3.8,11.9,14.9,12.9,19.2s-.7,2.9-.4,3.8,5.4,4.1,5.5,4.5c.6,1.8,0,3.4.3,5s2.9,3,4.3,6.4,1.4.4,1.6,1c1.3,4.5-1.9,4.4-2,5-.5,2.3,1.2,4.4.4,7-1.4,4.2-10.3,4.3-8.3,12.6s1.5.7,1.6,1c2.1,5.1,1.6,3.2,4.7,6.9s1.3,3.8,1.9,4.5,3.3.8,3.6,1.4c.5.8-.2,2.9.1,4.2s3.2,4.3,3.6,5.1c.8,1.4,1.5,7.2,4.4,5.1,1.7-6.3-3.6-6.6-4-8.2-.5-2.5.3-5.6,0-8.3l-2,2c.2-4.4,1.7-7.7,6.5-7.1s3.1,3.8,4.2,4c5.6,1.2,4.9,0,9.2,4.8,5.3,6,6.2,9.5,8,16.2l-11.1-14.4c-3.9-2.8-7.7-6.9-12.9-6.6-1.1,6.5,4.7,11.8,7.2,17.3s4.6,11.6,4.4,16.7,1.2,3.1-1.1,2-5.1-7.2-6.5-9.3c-5.9-8.2-12.3-16.7-17.8-25.4s-8.3-12.7-8.3-14.8c0-3.4,4-4.8,6-7.3,3.4-4.2,4.7-5.8,4-11.6s-11.1-23.7-14.1-28.9c-6.6-11.2-28.2-34.2-29.8-44.7Z"/>
  <path class="st3" d="M996,170.8c-.2.1,2.8,4,3,4.2,1.2,1,3.4.8,4.4,1.5s0,3.6,2.6,3.1l-2,2h20c.2,0-.3-3.7,0-4s2.2.3,3.2,0c4.1-1.4,2.2-6.6,2.8-9.2s1.5-.7,1.6-1c.8-2,.9-3.7,2.4-5.7,2,1.4,2.9,5,4,7.2,2.6,5.1,1.3,4,2,9.7l-5.5-11c-4.9,31-52.7,18.2-39.4-12.4,2.9-6.6,10.2-9.1,16.9-9.6-1.4,3.7-1.1,1-3.2,2.1s-4.5,3.3-5.6,3.9-4-1.6-3.2,3.1l-2-1c1.8,4.1-2.3,6.9-2,6.7"/>
  <path class="st3" d="M1108,403.5c12.6.8,20.3-4.3,22,12.5s-1.7,21-1,31.5c-2.8.6-13.4-.9-14.9.1s-.5,4.9-2.1,5.9c0-1.9,0-3.3,1-5-1.4-.1-2.7.6-4,1,3.2-3.9,1.1-4.6,1-8.5-.2-6.1.3-11.6-2-17.5,0,0,1.4-.3,1.8.2.6.8-.2,2.7.5,3.6s1.7.1,1.7.2v18c1.9,0,13.4.6,14,0s-.4-7.5,0-9.3,1.8-.3,2.1-2.1c.5-4.2.5-16.9,0-21.1s-3.8-4.8-4-5c-4.8-2.4-14.5,3-16-4.5Z"/>
  <path class="st3" d="M1098,371.5c-.8,5.8-3.2,10-1.7,16.2s4.3,8.4,5.3,9.7c1.9,2.4,5.1,2.9,5.4,6.1-2.7-.2-4.8.6-6.7-2.3s-.1-2.5-.7-3.3c-2-2.9-1.9-.8-4-6s-1.5-.4-1.6-1c-.4-1.5-.4-13.1,0-14.6s1.4-.5,1.9-1.5-.3-2.4.2-3.1,1.7,0,1.9-.1Z"/>
  <path class="st3" d="M1113,467.5l-1-2c0,.1.6,1,1,2Z"/>
  <path class="st1" d="M645,115.5c-12.8,4.3-25.8,11.5-37.5,0-3.3-3.2-4.2-6.9-6.5-10,2.1-4.5,17.7-11.7,16.8-16.2s-5.4-3.1-9.1-4c-16.1-3.9-26.5-28.8-6.2-31.7,8.1-1.1,23,9,27.2,15.6,7.7,12.1,13.4,32.1,15.2,46.3Z"/>
  <path class="st1" d="M922,142.5c.9-5,7.4-13.7,12.7-14.8,15.4-3.1,31.9,13.5,33.3,28.3,1.6,17.5-6.5,23.3-23.2,18.2-2.6-.8-15.4-8-16.8-9.7-3-3.8-6.9-17.1-6-22Z"/>
  <path class="st0" d="M241,155.5c-1.9,1.3-2.3,3.3-4,4s-2.7-.4-3,0,.4,2.6-.3,3.7-2.8.7-3.6,4,.5,4.9,1.5,8.1.1,4.1.3,4.2c.4.4,3.7-.3,4,0s-.9,7.1,2.7,8,9.4.6,7.2,4-2.5,2-2.6,2.1c-3.1.6-9-4.7-10.7-7.1s-1.4-8.6-6.6-6.9c-1.5,4.1,1.5,4.8,1.9,5.7s-.1,2.7.6,4.2,5.1,6.5,7.5,6c.6.8-8,9.9-8.7,10-1.1.1-2.4-.8-3.6-.6-1.8.2-7.2,1.7-8.1,1.5-2.5-.6-6-7.8-4.7-10.7-3.2-.3-5.1-3.5-8.4-4s-5.5.5-7.8-.2-1.5-5-6-3.8-2.8,2.4-2.8,2.6c-.3,2.8,4.8,4.7-1.7,8.1-3.6,1.8-6.3,1.4-10.2,1.3-1.2-4.5,1.7-3.7,1.9-4,1.8-2.3-3.3-1.4-1.9-3.9,6.6,1.3,7.6-5.5,12-9.3s5.9-.9,4-6.7c3.1-.9,4.3,1.8,7,2l-1-10c1.7-.3,9.6.4,10,0s-.4-4.7,0-5,4.2.6,4.9,0,.2-2.6.8-3.6c3.4-6.1,16.5-3,16.4-.7s-2.8,3.2-2,5.5c5.1.7,3.1-.5,4.4-2.6s1.2-.4,1.6-1.2-.2-2.5.4-4c1-2.4,7.3-3.9,8.7-.3ZM208,171.5c-12-1.1-1.9,8,0,6v-6Z"/>
  <path class="st1" d="M241,155.5c6.8-4.7,15.1-10.7,23.5-11s16.9,2.8,18.5,7c3.9,10.6-3,22-11,28.5-4.4,3.6-6.3,5-12,5.5s-12.9.6-16.3-.2c-9.7-2.2-10.1-18.4-6.7-25.8,1.7-.7,2.1-2.7,4-4Z"/>
  <path class="st1" d="M1034,246.5c-2.4-.2-4.4,1-6.5,1-4.8,0-15.6-7.4-18.5-11-8.8-11.1-8.6-33.4,6.1-39.4s13.5-2.1,18.1,5.7c7.7,13.2,8.3,30.4.8,43.7Z"/>
  <path class="st1" d="M357,123.5c9.8.7,20.9,32.5,0,40.5-9.3,3.6-23.5,5.3-25.1-8s-.5-18.7,0-24.5-.4-1.6.6-2.1c3.7-1.3,7.5-3.7,11.3-4.5s11.1-1.6,13-1.5Z"/>
  <path class="st1" d="M717.8,94.8c11.6-1.7,19.2,1,26.7,9.7,4.8,5.4,8.7,10.6,5.7,17.7-6.7,15.7-31.2,1.2-38.7-7.7s-5.8-18,6.3-19.7Z"/>
  <path class="st1" d="M549.6,27.9c4.9,3.2,6.4,14.3,2.1,18.3s-32.2,4.7-37.7.8-4.7-10.6-3.5-15.5c2.7-11.4,31.2-8.8,39.1-3.5Z"/>
  <path class="st1" d="M656.8,23.8c11.2-1.3,22.4-.2,27,11.4s.8,19.7-12.1,19.2c-9.7-.4-23.5-4.6-25.4-15.7-1.9-11.3-.3-13.7,10.6-15Z"/>
  <path class="st1" d="M379,90.5c-2.4,3-8.4,12.8-11,14s-12.4,3.9-14.5,4c-10.5.7-10.8-9.7-8.8-17.8s19.4-22.2,29.8-20.2c7.3,1.5,2.8,14.8,4.5,20Z"/>
  <path class="st1" d="M801,104.5c.9-4.6,10.8-11.5,15.5-11s14.8,10.1,15.3,11.7.1,2.2.2,3.3c2.5,28.4-34.3,11.8-31-4Z"/>
  <path class="st1" d="M953.7,191.7c10.5-2.4,31,8.1,20.8,19.8-9.9,11.4-37.8-1-26.5-15.5s3.6-3.8,5.7-4.3Z"/>
  <path class="st1" d="M208,211.5c-.3,1.4-6,9-7.5,10-6.3,4.5-11.7,1.5-15.9-4.1s-3.5-5.6-3.6-5.9c-.3-1.5,6.5-12.6,8.5-14,4.5-3.2,14.3-3.7,16.7,2.3s2.1,9.9,1.8,11.7Z"/>
  <path class="st1" d="M1094,343.5c-.6,5.4-8.1,9.6-13.3,8.8s-7.9-9.5-7.7-12.8,1-1.1,1-2.4c.3-10.8-2.4-17,12.2-14.3,9.4,1.7,8.6,13.2,7.7,20.8Z"/>
  <path class="st1" d="M757,161.5c-1.6,1.1-4.3,3.9-6,4.5-13.8,4.7-24.8-14.5-15-20.5s23.9,4.9,21,16Z"/>
  <path class="st1" d="M664.7,69.6c2.8-.7,16.3,6.6,18.3,9.4,4.2,6,1.3,14.1-6.2,13.3s-11.8-4.5-13.8-7.3-3.2-14.2,1.7-15.4Z"/>
  <path class="st0" d="M708.4,371.2c.2.4,1.3.6,1.6,1.1,3.4,6.7,12.9,23.8,2.6,28.3s-31.2-21.7-37.9-20-2.7,3.6-4.2,4.9c-10.7,9.2-29.4,4-36.9,18.1s-3,27,11.7,24.7c5.1-.8,10.2-6.1,15.1-5.7,8.1.5,14.4,10.5,23.2,11,12.1.7,15-15.4,33.5-6.6,14.6,7,14.6,19.3,19.8,32.2,7.9,19.5,23.9,37.4,28.9,58.1,2.2,9.2,1.1,19.9,4.8,28.2,4.3,9.6,15.6,17.8,21.3,26.7,7.1,11.1,9.8,25.5,11.2,38.3-8.9,3.3-13.2-11.3-20.6-7-12.6,7.3-3,24.5-.9,34,3.9,17.6-1.4,37.4-10.3,52.7-18.7,31.9-71.7,51.6-104.1,67.9-6.2,3.1-30,17.8-34.5,17.4-2.2-.2-7.1-2.1-5.4-4.8,15.4-11.6,32.6-21.7,47.3-34.2,6.6-5.6,25.3-23.6,24.5-32.4-.3-3.6-4.5-5.9-7.8-6.4-12.4-2-31.1,20.1-41.3,27.2-7.3,5.1-16.2,9.4-23.8,14.2-13,8.1-18.3,15.3-34.8,18.2-9.6,1.6-32.4,3.8-39.2-3.3-12.7-13.1,4.8-39.8-12.5-56.5-9.3-9.1-26.5-6.7-32-15-10.5-15.8,20.4-35.9,6.4-54.4-4.6-6.2-23.1-12.4-30.8-13.3s-6.5,3.5-9,10.5c-3.9,10.9-16,16.6-9.4,31s21.5,32.2,29.2,38.8l14,9.5c-16.5-1.3-33.4-2.6-48.4-10.1-3.9-2-18.4-11.6-19.9-15.1-2.2-5.4.7-10.5.1-16.1-2.5-26.8-50.4-25.4-41.4-57.6s20.5-33.7,27.5-40.5,20.3-17.1,24.7-17.4c10.8-.9,12.4,16.5,20.1,13.3s3-5.2,4.6-7c7.2-8.1,22.1-10.3,31.2-16.3,10.1-6.8,16.5-24.6,31.7-17.8,7.8,3.5,10.1,14.9,20.2,14.8,7.4,0,10.1-6.2,15-10.1,13.4-10.7,34.7-11.4,50.5-5.5,8.3,3.1,25.4,15.7,13,23.9-10.3,6.8-22-4.7-35.3-3.3-5.9.6-27.9,9.6-32.9,13.1-12.1,8.4-4.4,22.4,8.4,18.4s6.4-4.9,9.6-6.4c9.4-4.4,19-3.2,28.6.1,23.3,8.1,1.4,21.4,4.2,33.8,2.9,13,33.5,12.1,29.4,30.2-1.1,4.7-12.1,16.9-16.7,18.3-9.1,2.7-38.3-6.2-45.5-12.6-20.5-17.9,28.4-19.1,8.5-37.5s-24.5-10.4-38.2-1.1c-6.7,4.6-11.3,7.8-9.6,16.9s18.8,15.3,21.3,23.7-5.8,23.5-.7,32.7c5.6,10.2,19.9-3.8,26.6-2.7,6.1,1,7.3,17.7,20.8,8,5.9-4.3,8.3-13.1,18.2-12,12,1.4,15.1,26.4,30,24.9,7.9-.8,14.4-8.8,20.4-12.6s19.8-5.7,22-16.1c3.2-15.7-18.1-25.4-13.1-37.1s14.7-4.4,18.6-5.5c13.3-3.9,17.7-19.2,12.8-31.3-2-4.8-6.7-8.7-8.9-14.1-4.7-11.3-5.7-17.3-12.3-28.7-9.7-16.7-23.5-37.3-38.4-49.6-10.3-8.5-23.1-13.1-31.5-24.5-4-5.4-2-6.9-3.1-11.9-5-22.4-15.6-8.3-30.5-5.7s-28.3-.3-42.2,2.8c-7.2,1.6-16.9,9.4-17.2-2.1-.4-12,15.3-31.6,25.3-37.7,10.4-6.4,18.3-5.1,29-8,16.4-4.6,15.3-21.8-.2-26.3-9.7-2.8-25.3,2.4-35.7,4.4-11.3,2.2-17.3,1-27.9,8.1-5,3.4-9.5,10-16.1,10s-6.9-3.4-7.8-6c-3.2-8.9,5.7-12,10.5-16.4,8.9-8.3,19-25.6,5.3-34.4-11.8-7.6-14.1,0-21.8,5.8-14,10.6-34.4,10.7-48,23-6.4,5.8-11.3,17.2-21.8,14.8-12.1-2.7-4.5-32.2-22.8-16.3-12.4,10.7-32.6,30.5-42.9,43.1-2.8,3.4-13.4,20.9-14.5,21.5-2.1,1-1.3-1.7-1.4-2.5-1-5.6-1.3-8.9.5-14.5,2.8-8.9,30.1-44.5,37.5-53.5,10.4-12.7,36.3-37.3,52.7-39.3s17.3,8,29.2,3.2c12.3-4.9,13.8-25.2,31.6-27.4,10.7-1.3,18,3.8,28.9,2.9s11-3.9,16.2-4.8c13.7-2.3,27.9,6.7,41,10.5,18.7,5.4,39.2,7.8,58.7,6.3,17.8-1.4,37-12.1,53.4-.4,13.9,9.9,34.2,28.7,42.5,43.5s5.1,7.4,2.6,9.4c-6.9,5.5-19.6-12.6-28.3-12.2s-10.5,6.8-7.3,13.4Z"/>
  <path class="st2" d="M411.7,465.8c8.6,9.4-13.4,32.6,5,36.5s13.5-5.9,20.8-11.7c22.4-18,47.3-10.4,73.1-9.4,8.7.3,28.5-4.9,30.3,7.9s-20.8,9.3-30.4,9.3c-41.1.3-66.7,21.2-99.2,40.9s-17.7,6.5-18.3-10.3,3.1-10.6-2.2-12.8c-10.1-4.2-10.7,8.1-15.5,12.3s-20.9,7.4-26.3,16.4,2.5,8.1,3.1,13c2.7,21.9-12,26.6-24.6,39.5s-8.1,9.2-8.5,10.6.3,1.3,1.5,1.5c4.9.6,8.9-1.2,13.5,2.5,8,6.5,2.4,27.5,2,36.9-1,21.6.8,41.1-8.3,61.7-3.4,7.6-10.4,13.6-7.5,23.1s9.6,4.1,13.1,4.9c22.4,5.7,14.2,31.9,29.4,42.6,13.5,9.5,30.8-8.3,38.8,14.2s6.7,26.4,14,40c14.6,27.4,50.4,60.9,76.6,77.4,4.1,2.6,9.9,4.6,13.7,7.3s1.8,0,1.2,2.3c-18,2.5-33.2-1.2-49.7-7.8-13.6-5.4-18.9-11.6-34.8-11.2-27.5.7-45.9-1.4-64.4-24.5-17.9-22.3-12.2-35-15.1-59.9-.9-7.4-7.8-17-16.2-11.7-4.7,3-4.3,26-16.6,21.5-7-2.5-23.3-28.7-25.8-36.2-3.5-10.7-.5-21.1-4.2-30.8s-15.9-18.6-13.8-35.7c2.2-17.4,11.1-26.9,20.6-40.4l20.2-43.8c-1.4-5.1-7-5.3-11.3-4.3-10.1,2.3-18.7,21.4-31.6,14.2-13.8-7.7-2.7-27.3,2.4-37.4,9-17.9,21.6-34.1,35-49,4.9-5.4,18.5-16.5,20.7-22.3s-3.4-16-2.2-25.2c2.1-16.6,30.8-24.8,44-32,12.6-6.8,24.7-14.8,37.2-21.7,3.2-1.5,8-1.1,10.4,1.5Z"/>
  <path class="st2" d="M855,440.5c.7.7,3.8,17.2,4,19.5,1.6,19.8-2.7,37.5,1.3,57.7,4.4,22.4,17,40.8,18.7,64.3,1.5,21.4-2.2,41-7.5,61.5-3.3,12.9-12.3,29.3-6.4,42.3,4,8.7,13.8,11,16.6,20.4,5,17.1-5.4,56.2-23.7,62.7-7.9,2.8-15.5,2-21.4,9.6-6.2,8.1-2.9,16.5-6.1,24.9-4.6,12.1-18.6,12.7-29,17-29.9,12.4-58.3,27.9-91.5,30-1.1-1.1,3.6-5.3,4.5-6,18.3-15.1,47-21.5,67.5-33.5,24.6-14.4,48.8-43.7,53.7-72.3s4.2-23.7-6-22.1c-3.3.5-12.3,13.7-15.2,16.9-12.7,13.7-30.5,28.2-48.7,33.3s-17,2-24.8,4.2-15.9,9-27.5,7.5-2.9-.5-1.5-2c7.5-3.3,15.4-6.1,22.7-9.7,19.1-9.6,39.7-22.4,53.2-39.8,19.3-24.8,33.8-57.6,34-89.5,2.3-2.2,18,11.8,21.1,7.4,4.6-6.4-.7-31.9-1.2-40.9-2.6-54.2,3.1-108.6,11.1-162,.2-1.3.5-3.2,2-1.5Z"/>
  <path class="st0" d="M942,615.5c10.5,12.8,20.1,26.9,25.7,42.8,8.4,23.7,5.8,48.8,11.8,73.2s4.7,9.7,4.6,16.5c-.5,46.6-41.5,84.1-70.6,115.5-4.7,5-13.4,17.7-18.1,20.9s-18.6,7.9-26,12c-11.5,6.4-26.4,19.1-38.9,22.1-18.9,4.5-32,3.3-50.4,13.6-15,8.4-23.5,22.6-39,30-18.9,9.1-40.9,8.2-61.5,9.5-18.5,1.2-37,3.7-55.5,1l44.8-14.7c9.7-4.4,25.7-4.9,34.6-9.4,5.5-2.8,11.2-14.2,17-19.5,19.3-17.5,36.9-13.7,58.8-19.7,5.8-1.6,19.4-7.9,25.2-10.8,20.3-10.3,37.2-31.7,59.2-37.8,9.2-2.6,20.1-.8,26.4-9.8s3.1-10.9,5.6-17.2c6.9-17.6,28.6-24.2,41-37,24-24.8,24.2-43.2,21.5-75.5s-4.9-63.5-14.3-94.7c-.4-1.3-6.1-13.6-1.7-10.8Z"/>
  <path class="st0" d="M569,1041.5c0,5.2-9.9,11.5-14.3,13.2-10.9,4.3-26.5,3-36,10-4.3,3.2-1.4,5-3.7,8.8.2-3.6.6-6-1.4-9.1-4.2-6.4-16.4-11.7-24-10.9-4.2.5-19.2,5.9-20.6,9.9-3.3-12-15.8-3-22.6-2.1-42,6.1-44.8-39.2-74.1-52.8-11.5-5.4-18.1-1.9-23.6-16.4s-.9-4.2-1.8-6.7c-13.3-37.9-18-62.8-15-103.5s-.8-2.9,1.5-2.5c15.5,16.1,18.3,39.4,29.1,57.9s25.3,27,36.4,41.6c3.9,5.1,9.7,18.4,13.1,20.9,7.8,5.9,9.5,0,15.6-3.3,22.9-12.3,36.5,13.3,55.1,21.6s42.7,8.3,63.5,13.5c4.3,1.1,8.5,2.9,12.7,4.3s10,.1,10,5.5Z"/>
  <path class="st2" d="M787,773.5c.8.8-5.9,10.2-7,11.5-25.2,30.1-76.4,31.4-110.9,51.1-17.9,10.2-24.6,21-38.7,33.3-26.1,22.9-50,4.9-75.7-1.3s-12.3.5-22.4,2.2c-7.9,1.4-6-1.5-9.9-5.9-22-24.9-60.7-25.6-71.5-62.5-1.6-5.5-2-11.8-3.5-17.5-5.6-20.3-17-39.1-22.8-59.2-3.4-11.8-5.3-24.5-5.7-36.8l6.8,17.7c9.4,22.4,24.1,41.7,37,62,10,15.7,16.7,38.6,37.9,41.1,7,.8,13.9-2.6,21.7-1.8,22.3,2.4,27.6,31,52.3,36.7,25.8,6,39-6.7,60.5-15.9,45.7-19.6,96.7-24,140.7-48.3,1.6-.9,10.1-7.4,11-6.5Z"/>
  <path class="st0" d="M232,625.5c-1.6,1.4-4.2-4.8-4.5-6-.7-2.8-.7-5.6-.3-8.4,9.3-43.9,14-89,23.2-132.8s4.7-22,15.4-27.6,18.7-3.3,23.8-8.2,5.9-12.6,9-17c10.4-14.7,32.3-20.6,46.4-31.1,1.5,10.1-2.2,16.7-8.6,23.9-22.2,25.3-31.7,42.8-49.6,70.4s-11.6,14.1-13,18-1,17.5-2,24c-5.1,33.4-24.2,65.4-39.8,94.7Z"/>
  <path class="st2" d="M816,482.5c-2.7.3-1.6,0-2-1.5-2.5-10.5-1.1-37.3-14.7-40.3-2.5-.6-5.3.2-7.7-.3-7-1.4-14.5-3.7-17-11s-4.8-27.8-2.4-33.2,4.8-5.7,5.5-9.5c5.1-25.1-23.2-37.7-30.8-58.3,22.8,10.2,52.1,22.4,68,42.5s18.5,49.6,18,66c-.5,17.2-7.3,31.8-17.1,45.4Z"/>
  <path class="st0" d="M539,934.5c-1.4-1.4,0-1.8,1.5-2,10-1.2,17.6-1.9,27.5-4.5,24-6.4,54.2-22.2,78.8-23.3,5.9-.2,11.5,2,12,8.5s-8.2,11.9-14.1,14.4c-24.5,10.7-67.3,23.3-92.7,13.3s-12.5-6-13-6.5Z"/>
  <path class="st1" d="M288,920.5c3.5,9.9,11.5,20.8,9.8,31.3s-2.6,7.5-3.8,8.7c-2.6,3-14.7,7.2-18.8,7.7-25.7,3.4-38.6-34.1-21.3-52,12.2-12.6,21.8-.2,34,4.2Z"/>
  <path class="st2" d="M895,703.5l5-47.5c-.5-29.7.6-59.4,0-89s-.8-3.7.9-3.5c6.9,37.8,27.7,71.7,16.7,111.2-3.3,12-8.9,26.4-22.7,28.8Z"/>
  <path class="st2" d="M598,969.5c.6,2.3-.4,1.6-1.3,2.3-33.5,26.3-92.9,15.7-127.4-4.1l-17.3-12.2c9.7,1.8,19.1,4.8,28.8,6.7,38.5,7.7,78,7.2,117.2,7.3Z"/>
  <path class="st0" d="M946,870.5c3.9-.4,1.2,2.5.3,3.7-21.1,28.5-57.1,51.4-91.1,61-11.1,3.1-23.4,3.2-33.8,8.2-1.6.8-2.8,1.2-3.5,3-2.1,0-11,.4-11.8-.1-1.4-.9-1.7-5.1.5-6.7,3.6-2.8,19-6.6,24.7-9.3,5-2.3,13.8-9.7,16.4-10.6,16.1-5.5,26.5-5.6,43.3-14.7,18.1-9.8,33.1-26.5,51-33.5.8-.3,1.5-.8,2-1s1.5.2,2,0Z"/>
  <path class="st0" d="M755,860.5c1.8,1.5-8.6,9.1-9.7,9.8-12.1,8.5-29.4,15.2-43.5,19.5-6.3,1.9-31.2,10.7-28.8-2.7.4-2,12.7-14.4,14.9-15.1,4.1-1.3,9.9,0,14.4-.6,17.3-1.9,34.3-13.4,52.6-10.9Z"/>
  <path class="st0" d="M939,589.5c-3,.5-1.6-.8-2.1-2.3s-.9-3.1-1.4-4.7c-9.3-29.7-16.1-61-24.5-91,9.9-3.7,10.5-.7,15.2,7.3,16.1,27.6,12.5,60,12.8,90.7Z"/>
  <path class="st0" d="M820,493.5c1.4,1.2,6.3,13.8,7,16.5,7.9,27-1,52.7-4,79.5-3.5.8-1.7-5.1-2-7.5-3.1-27-10.8-60.5-3-87.1.3-1.1.3-2.9,2-1.4Z"/>
  <path class="st0" d="M868,813.5c19-16.8,41-31.5,52.5-55l8.5-19c7.4,35.8-25.9,72.2-61,74Z"/>
  <path class="st0" d="M516.4,755.1c2,2.2,20.5,22.7,18.6,24.4-32.2-2.3-42-31.7-54-56.5,13.6,8.2,24.8,20.3,35.4,32.1Z"/>
  <path class="st2" d="M944,870.5c-.5.2-1.2.7-2,1l2-1Z"/>
  <path class="st4" d="M586,191.5c14.7,1.7,30.3,6.9,44,12.5s45.8,20,58.3,28.7,8.8,8.6,4.7,14.4c-3.7,5.1-19.2,3.8-25.6,3.5-14.7-.6-61.8-6.2-71.5-16.5-4.1-4.4-4.8-11-7.8-16.2-4.5-7.8-11.2-10.5-20.3-8.8s-24.1,16.6-32.9,2.5l-1-1c-.1-.5,0-1.4,0-2s1-.7.8-2.1c-.8-5.3-1.7-10.8-6.9-13.2-9.1-4.3-19.6-1.2-28.9-4.6,0-1,.9-1.4,1.7-1.7,13.7-6,48.7,1.9,64.8,3.7,6.3.7,13.8.2,20.5,1Z"/>
  <path class="st3" d="M455,91.5c1.1,12.1,16.5,16.2,27,13.5,3.6-.9,17.3-8.9,18-12.5-.6,3,1.5,1.9,3.5,2,20,.9,42.4,5.1,60.8,13.2s6.6,4.6-1.7,6c-13.7,2.3-29,.3-43.1,1.8-4.5.5-12.9,4.5-15.5,4s-5.4-3.4-8.6-3.9c-11.8-1.8-22.9,4.6-26.4,15.9-7.4-3.4-14.6-1.6-22.2.3-17.7,4.4-33.4,15.6-51.8,17.7,19-17.8,28.8-40,52.4-53,3.8-2.1,5.6,0,7.5-5Z"/>
  <path class="st1" d="M1079,447.5c-3.3-.4-7.4.6-10.5,0s-12.7-12.9-14.9-16.1c-8.4-11.7-23.6-39.3-22.6-53.5.9-13.4,17-18,28.3-16.2s18.3,8.2,19.5,10.5c4.1,7.8-1.3,34.8-1.8,44.8s0,20.5,2,30.5Z"/>
  <path class="st1" d="M193,307.5c7.4,6.6,2.3,19.5,10,26.5s2.9,1.3,4,2.5c4.2,4.4,6,14.4,4.8,20.3s-13.2,18.5-18.5,19.5c-12.9,2.4-17.3-6.3-17.3-17.8s5.1-14.2-7-17,0-.9-1-1-1.9,0-2,0c-11.3-13,3.9-20,8.5-30s1.2-8.1,4.2-8.9,11.8,3.7,14.3,5.9Z"/>
  <path class="st1" d="M895.7,286.7c21.9-4.9,37.5,22.3,31.6,41.6-.9,3-6.4,13.2-8.9,14.1-6.5,2.3-24.5-4-29.4-9.3s-9.8-30.6-5-38c1.4-2.2,9.2-7.7,11.7-8.3Z"/>
  <path class="st1" d="M696,205.5c-10.4,2.4-20.2-2.9-30.2-5-.5-.2-1.7-1.6-1.8-2-.3-1.1.3-2.8-.2-4.2-3-8.6-8.1-19.5,1.3-26.2s25.2-3.6,34.7,3.2c18.7,13.4-4.3,22.4-3.7,34.2Z"/>
  <path class="st1" d="M151,290.5c-.4,6.6,4.8,11.2,4.3,17.8s-9.3,21.6-18.9,23.1c-13.5,2.1-21.4-4.1-21.4-17.9s.2-2.3.8-3.7c2-5,10.5-19.4,14.9-22.1,10.3-6.4,13.7,2,20.3,2.8Z"/>
  <path class="st1" d="M500,92.5c-.6,3.6-14.3,11.6-18,12.5-10.5,2.7-25.9-1.4-27-13.5,2.7-6.8,3-12.9,9.8-18s33.6-8.7,35.2,5.4.4,10.9,0,13.5Z"/>
  <path class="st1" d="M359.7,223.2c-8.4,7.6-20.5-5.6-26.2-11.7s-10.6-11.4-8.8-15.7c4.1-9.7,17.9-13.3,27.6-11.1s6.1,15.7,8.2,21.8,3.3,3.3,3.6,5.5-2.4,9.4-4.3,11.1Z"/>
  <path class="st1" d="M1100.7,573.7c4.7-1.1,10.8-.3,14.3,3.3,6.1,6.2,6,26.5,5,35s-19.7,9.2-23.5-1.5c-1.4-3.9-3.2-20-3.1-24.3s1.8-11.2,7.3-12.5Z"/>
  <path class="st1" d="M953.7,321.7c6.8-1.3,17,3.1,18.2,10.3s-2.1,23.6-7.4,27.4c-4.9,3.5-16.3,4.1-17.4-3.6s-.9-23.8.2-28.7,3.8-4.9,6.5-5.5Z"/>
  <path class="st4" d="M429,231.5c-6.2,7.7-9.5,23.2-21.6,24.9-8.8,1.2-12.6-3-20.4-4.9-.7-4-8.4-5.4-11-9,11.9-2.1,22.8-3.8,33.3-10.2,6.9-4.2,18.4-17.9,19.7-.8Z"/>
  <path class="st1" d="M814.3,187.8c4.3-5.4,17.6-1.2,22.6,2.3s17.5,21.1,7.3,25.2c-15.8,6.3-38.8-16.5-29.9-27.4Z"/>
  <path class="st1" d="M1108,423.5c2.3,5.9,1.8,11.3,2,17.5s2.2,4.6-1,8.5c-5.7,1.7-10.6,4.5-16.5,1s-8.3-14.6-8.5-18.5c-.6-13,13.9-19.4,23.1-11s.7,2.1,1,2.5Z"/>
  <path class="st4" d="M346,273.5c-1.3,17.6-20.5,25.3-32,35.5s-4.9,4.7-7,7-1.4,4.1-5,5.5c-7.5,2.8-16.2,4.4-13.8-6.8,13.7-9.7,27.1-20.1,40.5-30.2,5-3.7,13.3-8,17.2-11Z"/>
  <path class="st1" d="M504,119.5c-.8,6.3-6.5,18.7-13,20.5-10.4,3-14.5-5.1-22-8.5,3.6-11.3,14.7-17.7,26.4-15.9s6.8,3.6,8.6,3.9Z"/>
  <path class="st1" d="M888,229.5c2.1,0,4.2-.2,6.3.2,4.9,1.1,21.4,12.6,25.6,16.4s1.2,6-4.6,8.3c-17,6.8-27.4-9.7-27.4-24.9Z"/>
  <path class="st1" d="M238,280.5c-1.6,7.8,2.9,24.4-9,28.4-12.3,4.2-12.8-8.9-12-17.4,4.1-2.5,9.3-8.3,12.8-9.7s5.2-1.6,8.2-1.3Z"/>
  <path class="st3" d="M72,361.5c1.6,4.2-3.5,6.6-6,4s1.9-1.9,2-2c1.6-2.4-4.2-1.7-1-4,1.5.7,3.6,1.3,5,2Z"/>
  <path class="st3" d="M727,1154.5c-9.1-4.1-29.4-4.8-38.2-.7-10.2,4.8-11.8,15.6-12.8,25.7,0,0-1.4.2-2-.7-2.9-4.5-5.2-12.9-12.4-12.3s-13.1,13.4-15.2,13.9-5.3-2.1-7.2-2.6c-25.1-5.8-35.3,2.2-54.2,15.7-2.6-8.4-.7-11-9.1-17.4-20.5-15.7-51.4-6.6-26.9,19.4-.7-.3-2.3,0-3.9-.5-7-2.7-4.1-6-5.1-10.8s-1.5-.6-1.9-1.5c-.7-1.6-.6-6.9,0-8.5s3.4-.7,1.9-2.7-4.3-.1-1.9-2,8.4.9,8-4h-14c-.2,0-1.9-2.6-2-2.8-.3-1.3,0-2.9,0-4.2,2.3,1.5,3.6,3.5,6.6,3.9,4.3.7,18.4.6,22.7-.2s14.7-9,14.7-14.8c8.9-2.6,17.6-5.8,26.8-7.7s63.9-7.9,69.2-12.3c10,13.7,21.4,16.1,33,2.5,1-1.2,3.4-6.3,4-6.5,2.2-.8,9.2-.6,12.2-1.3,8.7-2,39.5-12.5,38.8,4.7-.4,9.3-13.3,8.7-18.1,12-3.3,2.3-3.6,7.8-6,11s-5.7,3.2-7,4.5Z"/>
  <path class="st1" d="M515,1073.5c-1.1,16.7-12.2,20.6-27.1,17.6s-24-12.8-18.9-27.6,16.4-9.5,20.6-9.9c7.5-.8,19.8,4.5,24,10.9s1.7,5.5,1.4,9.1Z"/>
  <path class="st0" d="M742,1082.5c.2,1.9-2.1.8-3.2.7-3.6-.3-7.9-1.5-11.3-1.7-32.2-1.8-61.8,15.9-93.5-1.5-.8-.4-2.8-.2-2-2,1.5-3.3,26.1-8,30.6-8.4,25.9-2.1,56.4.4,79.4,12.9Z"/>
  <path class="st1" d="M449,1131.5c6.1.3,16.6,6.6,17,13s-1.4,10.8-2.6,12.9c-7.4,13.3-35.1.5-39.1-11.7s-1.4-13.4.8-16.7c4.2-6.2,14.2,2.4,18.7,3.3s3.9-.9,5.2-.8Z"/>
  <path class="st1" d="M570,1137.5c.2,3.4,4,6.9,4,10,0,5.8-9.1,13.8-14.7,14.8s-18.4.9-22.7.2-4.3-2.4-6.6-3.9c-.5-8.8-1.2-20,8.6-23.9s21.6-.1,31.4,2.9Z"/>
  <path class="st0" d="M126,825.5c-10.4.6-14.3-12.7-15-21-1.4-15.4-.6-37.7,0-53.5,0-1.2-.8-3.7,1-3.5,7.8,23.4,17.9,43.9,16,69.5-.2,3.2-1.8,6.3-2,8.5Z"/>
  <path class="st1" d="M215.7,895.8c3.8-.6,8.2-.7,10.7,2.8,2.7,3.7,2.1,21.1,1.4,26.4-2.1,16.4-22.2,12.2-23.9-1.9s.8-25.5,11.8-27.3Z"/>
  <path class="st1" d="M330.7,1041.7c10.1-2.9,23,2.5,28.1,11.5,10.9,18.8-19.3,19.8-27.7,6.7-2.5-3.9-6-16.5-.5-18.1Z"/>
  <path class="st1" d="M670,1127.5c.5-.4,1-2.6,2-3.5,11.4-10.5,18.8-11.1,32.4-3.3s3.2.3,2.6,2.8c-.6.2-3,5.3-4,6.5-11.6,13.6-23,11.2-33-2.5Z"/>
  <path class="st1" d="M266.7,1015.8c-2.6-2.8-15.7-4.8-14.6-10.7s15.5-5.2,19.1-4.4c12.6,2.6,23.3,28.5,4.4,24.5-7.1-1.5-6.1-6.2-9-9.5Z"/>
  <path class="st1" d="M444,1097.5c.6,1.7-1.5,8.4-3,9.5-2.7,1.8-11.4.9-15,.5s-8.3-7.6-8.8-11.8c-.9-6.7,7.1-10.3,12.9-8.8s13.5,9.3,14,10.5Z"/>
  <path class="st3" d="M806,1105.5c0,2.1.8,8.1,1.3,10.2s2.8,10.3,3.7,11.8c-6.9.1-20.7,4-22.8-5.7s11.5-11.9,17.8-16.3Z"/>
  <path class="st3" d="M107,804.5c-15.7,1.8-10.1,15-10,26-1.3-.5-4.4-.1-6-1-2.7-6.7-3.9-14-5-21s0-.7,0-1c3.3,1.2,1.5,5,2,7.3l4,4.7c.2-2.3-.4-5,0-7.3s3.4-2.4,3.7-3c1.3-2.9-1.7-3.9,4-4l4.3-4.7c.3.6,3,2.2,3,4Z"/>
  <path class="st3" d="M522,1203.5c-.3,2.5,5.2,5.2,5.7,6.3s0,3.5.3,3.7c.4.4,3.4-.4,3.9,0s1.7,16.1-3.9,14c1-4.1,2.4-5.1,1.1-9.5-1.8-5.9-7.7-8.9-10.1-14.5,1,0,2.2.2,3,0Z"/>
  <path class="st0" d="M127,835.5l-1-1c0,.1.9.5,1,1Z"/>
  <path class="st1" d="M76,638.5c-1.4,12.2,9.4,24.1,3.7,38.2-1.2,2.9-9.7,12.8-12.7,10.7s-7.6-14.5-8.8-16.7-6.7-9-7.3-11.3-.3-13.6,0-16.4c2.1-15.4,15.6-8.5,24.9-4.6Z"/>
  <path class="st2" d="M168,340.5l1,1c12.1,2.8,7,7.1,7,17-4.4.7-3.8,6.9-5.2,10.3s-5,11.2-9.4,13.6c-15,8.2-20.1-8-17.1-20.1s7.1-18.2,8.3-19.7c2.2-2.9,6.4,2,9.9,2s3.3-3.6,3.6-4,1.4,0,2,0Z"/>
  <path class="st1" d="M126,391.5c3.4,0,6.7-.4,10,.5,14.8,3.8,10.4,38.1-5.6,40.5s-6.1,0-7.8-3-2.6-17.5-2.6-21.9c0-9.9,5.9-11.4,6-16Z"/>
  <path class="st3" d="M75,429.5c0,6.1-.9,16.8-3.3,21.7s-1.3.3-1.6,1.1.2,2.9,0,3.2-3.8-.1-5,0c9.1-7.4,5.6-18.9,6-29.6s1-2.3,1-2.4c1.8.6,3,4.3,3,6Z"/>
  <path class="st3" d="M40.3,403.8c.1-.2,1.3-.1,1.6-1s-.3-3,.5-4.3c3.5-5.8,5.5,11,2,12s-5.5-3.8-4.1-6.7Z"/>
  <path class="st3" d="M60,367.5c2.1,2.1-1.9,6.1-4,4s2.4-5.6,4-4Z"/>
  <rect class="st3" x="60" y="403.5" width="4" height="2"/>
  <path class="st2" d="M535,211.5c-.2-.3-.9-.5-1-1l1,1Z"/>
  <path class="st1" d="M585,1193.5c-12.9,9.2-22.2,7-36,2-24.5-26,6.4-35.1,26.9-19.4,8.4,6.4,6.5,9,9.1,17.4Z"/>
  <path class="st3" d="M51,461.5c-.5,1.7-1.2,2.3-2,4-1.4-1.7-.3-4.7,2-4Z"/>
  <path class="st3" d="M252,1108.5c0-.3,0-.7,0-1l1,.5-1,.5Z"/>
  <path class="st3" d="M50,456.5c.7.3-.6,1.7-2,1s.6-1.7,2-1Z"/>
  <path class="st3" d="M208,171.5v6c-1.9,2-12-7.1,0-6Z"/>
  <path class="st0" d="M169,341.5l-1-1c.9.1.9,1,1,1Z"/>
</svg>